<?xml version="1.0" encoding="UTF-8"?>
<svg id="svg2" xmlns="http://www.w3.org/2000/svg" xmlns:xlink="http://www.w3.org/1999/xlink" xmlns:svg="http://www.w3.org/2000/svg" xmlns:rdf="http://www.w3.org/1999/02/22-rdf-syntax-ns#" xmlns:dc="http://purl.org/dc/elements/1.1/" xmlns:cc="http://creativecommons.org/ns#" version="1.1" viewBox="0 0 1123.6 543.9">
  <!-- Generator: Adobe Illustrator 29.3.1, SVG Export Plug-In . SVG Version: 2.1.0 Build 151)  -->
  <defs>
    <style>
      .st0 {
        fill: url(#linear-gradient2);
      }

      .st1 {
        fill: url(#linear-gradient1);
      }

      .st2 {
        fill: url(#linear-gradient9);
      }

      .st3 {
        fill: url(#linear-gradient3);
      }

      .st4 {
        fill: url(#linear-gradient6);
      }

      .st5 {
        fill: url(#linear-gradient8);
      }

      .st6 {
        fill: url(#linear-gradient7);
      }

      .st7 {
        fill: url(#linear-gradient5);
      }

      .st8 {
        fill: url(#linear-gradient4);
      }

      .st9 {
        fill: url(#linear-gradient11);
      }

      .st10 {
        fill: url(#linear-gradient10);
      }

      .st11 {
        fill: #030303;
      }

      .st12 {
        fill: url(#linear-gradient12);
        stroke: #fff;
        stroke-miterlimit: 10;
      }

      .st13 {
        fill: url(#linear-gradient);
      }

      .st14 {
        fill: #fff;
      }
    </style>
    <linearGradient id="linear-gradient" x1="-18.2" y1="792.8" x2="-16.4" y2="792.8" gradientTransform="translate(983.2 23926.2) rotate(.8) scale(29.7 -29.7)" gradientUnits="userSpaceOnUse">
      <stop offset="0" stop-color="#fff"/>
      <stop offset=".3" stop-color="#9e9e9e"/>
      <stop offset=".5" stop-color="#494949"/>
      <stop offset=".7" stop-color="#141414"/>
      <stop offset=".7" stop-color="#000"/>
      <stop offset="1" stop-color="#000"/>
    </linearGradient>
    <linearGradient id="linear-gradient1" x1="-18.2" y1="792.8" x2="-16.8" y2="792.8" gradientTransform="translate(979.9 28660) rotate(.8) scale(35.7 -35.7)" gradientUnits="userSpaceOnUse">
      <stop offset="0" stop-color="#fff"/>
      <stop offset=".3" stop-color="#9e9e9e"/>
      <stop offset=".5" stop-color="#494949"/>
      <stop offset=".7" stop-color="#141414"/>
      <stop offset=".7" stop-color="#000"/>
      <stop offset="1" stop-color="#000"/>
    </linearGradient>
    <linearGradient id="linear-gradient2" x1="-18.2" y1="792.8" x2="-16.8" y2="792.8" gradientTransform="translate(932.3 28659.5) rotate(.8) scale(35.7 -35.7)" gradientUnits="userSpaceOnUse">
      <stop offset="0" stop-color="#fff"/>
      <stop offset=".3" stop-color="#9e9e9e"/>
      <stop offset=".5" stop-color="#494949"/>
      <stop offset=".7" stop-color="#141414"/>
      <stop offset=".7" stop-color="#000"/>
      <stop offset="1" stop-color="#000"/>
    </linearGradient>
    <linearGradient id="linear-gradient3" x1="-18.3" y1="792.8" x2="-17" y2="792.8" gradientTransform="translate(922.9 33393.1) rotate(.8) scale(41.7 -41.7)" gradientUnits="userSpaceOnUse">
      <stop offset="0" stop-color="#fff"/>
      <stop offset=".3" stop-color="#9e9e9e"/>
      <stop offset=".5" stop-color="#494949"/>
      <stop offset=".7" stop-color="#141414"/>
      <stop offset=".7" stop-color="#000"/>
      <stop offset="1" stop-color="#000"/>
    </linearGradient>
    <linearGradient id="linear-gradient4" x1="-18.2" y1="792.8" x2="-17" y2="792.8" gradientTransform="translate(792.8 23923.6) rotate(.8) scale(29.7 -29.7)" gradientUnits="userSpaceOnUse">
      <stop offset="0" stop-color="#fff"/>
      <stop offset=".3" stop-color="#9e9e9e"/>
      <stop offset=".5" stop-color="#494949"/>
      <stop offset=".7" stop-color="#141414"/>
      <stop offset=".7" stop-color="#000"/>
      <stop offset="1" stop-color="#000"/>
    </linearGradient>
    <linearGradient id="linear-gradient5" x1="-18.4" y1="792.8" x2="-17.3" y2="792.8" gradientTransform="translate(962 50025.5) rotate(.8) scale(62.7 -62.7)" gradientUnits="userSpaceOnUse">
      <stop offset="0" stop-color="#fff"/>
      <stop offset=".3" stop-color="#9e9e9e"/>
      <stop offset=".5" stop-color="#494949"/>
      <stop offset=".7" stop-color="#141414"/>
      <stop offset=".7" stop-color="#000"/>
      <stop offset="1" stop-color="#000"/>
    </linearGradient>
    <linearGradient id="linear-gradient6" x1="-18.6" y1="792.8" x2="-17.3" y2="792.8" gradientTransform="translate(701.2 28656.2) rotate(.8) scale(35.7 -35.7)" gradientUnits="userSpaceOnUse">
      <stop offset="0" stop-color="#fff"/>
      <stop offset=".3" stop-color="#9e9e9e"/>
      <stop offset=".5" stop-color="#494949"/>
      <stop offset=".7" stop-color="#141414"/>
      <stop offset=".7" stop-color="#000"/>
      <stop offset="1" stop-color="#000"/>
    </linearGradient>
    <linearGradient id="linear-gradient7" x1="-18.7" y1="792.8" x2="-17.6" y2="792.8" gradientTransform="translate(614.7 23921.5) rotate(.8) scale(29.7 -29.7)" gradientUnits="userSpaceOnUse">
      <stop offset="0" stop-color="#fff"/>
      <stop offset=".3" stop-color="#9e9e9e"/>
      <stop offset=".5" stop-color="#494949"/>
      <stop offset=".7" stop-color="#141414"/>
      <stop offset=".7" stop-color="#000"/>
      <stop offset="1" stop-color="#000"/>
    </linearGradient>
    <linearGradient id="linear-gradient8" x1="-18.7" y1="792.8" x2="-17.3" y2="792.8" gradientTransform="translate(611.3 28655.4) rotate(.8) scale(35.7 -35.7)" gradientUnits="userSpaceOnUse">
      <stop offset="0" stop-color="#fff"/>
      <stop offset=".3" stop-color="#9e9e9e"/>
      <stop offset=".5" stop-color="#494949"/>
      <stop offset=".7" stop-color="#141414"/>
      <stop offset=".7" stop-color="#000"/>
      <stop offset="1" stop-color="#000"/>
    </linearGradient>
    <linearGradient id="linear-gradient9" x1="-18.8" y1="792.8" x2="-17.4" y2="792.8" gradientTransform="translate(563.7 28654.6) rotate(.8) scale(35.7 -35.7)" gradientUnits="userSpaceOnUse">
      <stop offset="0" stop-color="#fff"/>
      <stop offset=".3" stop-color="#9e9e9e"/>
      <stop offset=".5" stop-color="#494949"/>
      <stop offset=".7" stop-color="#141414"/>
      <stop offset=".7" stop-color="#000"/>
      <stop offset="1" stop-color="#000"/>
    </linearGradient>
    <linearGradient id="linear-gradient10" x1="-18.7" y1="793" x2="-17.2" y2="793" gradientTransform="translate(538 9808.5) rotate(.8) scale(11.9 -11.9)" gradientUnits="userSpaceOnUse">
      <stop offset="0" stop-color="#fff"/>
      <stop offset=".3" stop-color="#9e9e9e"/>
      <stop offset=".5" stop-color="#494949"/>
      <stop offset=".7" stop-color="#141414"/>
      <stop offset=".7" stop-color="#000"/>
      <stop offset="1" stop-color="#000"/>
    </linearGradient>
    <linearGradient id="linear-gradient11" x1="-19.3" y1="793" x2="-17.3" y2="793" gradientTransform="translate(447.2 9806.8) rotate(.8) scale(11.9 -11.9)" gradientUnits="userSpaceOnUse">
      <stop offset="0" stop-color="#fff"/>
      <stop offset=".3" stop-color="#9e9e9e"/>
      <stop offset=".5" stop-color="#494949"/>
      <stop offset=".7" stop-color="#141414"/>
      <stop offset=".7" stop-color="#000"/>
      <stop offset="1" stop-color="#000"/>
    </linearGradient>
    <linearGradient id="linear-gradient12" x1="688.2" y1="328.2" x2="703.6" y2="328.2" gradientTransform="translate(4.7 -7.6) rotate(.8)" gradientUnits="userSpaceOnUse">
      <stop offset="0" stop-color="#fff"/>
      <stop offset=".3" stop-color="#9e9e9e"/>
      <stop offset=".5" stop-color="#494949"/>
      <stop offset=".7" stop-color="#141414"/>
      <stop offset=".7" stop-color="#000"/>
    </linearGradient>
  </defs>
  <path d="M435,256.2l-38.9,28.7,49.5-24.2M433.8,255.9l1.2.3M431.7,242.9l-67.4,45.4,7.8-3,61.6-29.4M349.5,251.2,368.4,238.7l-66.3,51c1.2,0,1.9-.7,2.8-1.2,12.5-7,30.5-18.6,42.2-26.8M379.8,227.6,476.8,238,458.9,260.6c34.9-22.1,67-49.9,101.5-72.3.8-.5,1.8-1.1,2.8-1.4.5.5,1.6,11,2.7,13.1.8,1.8,5.7,4.2,5.4,5.5-1.8,2.3-5.7,4-6.9,6.6-.8,1.7-4.7,17.7-4.4,18.6l33.7,20.9c2.7,1.6,2,15.1,4,15l15.8-19.1-5.3-.6-15-15.7,18.4,12.2,3.5-.3-23.5-23.5,28.2,18.9,32.7-4.6-41.4,39.6,31.6-16.4-6.4,14.9c28.2,9.4,53.7,25.2,84.3,28.7l-17.8-16-9.8-12.6c.7-.6,12.8,5.2,15,5.5,2.3.2,1-4,2.4-4.8,11,5.7,22.1,11.6,33.5,16.9.7.3,2,1.5,2.7.5l-55.2-35.5,36.5,14.7-40.6-28.3,18.6-18.8-21.9,15.4-2.4-.7,36.1-28.3c.9.8,2.3,1.5,2.7,2.5.5,1.4,2.7,14.1,2.7,15.5-.2,3.9-8.2,11.5-6.8,14.5l33.5,32.3-15.4-29.7.8-.7,21.9,20.8c-1.8-7.1-6.9-13.6-9.3-20.4-.2-.7-1.1-2.2.4-2.1l18.5,21,11.8,44.3,87,29.5,1.2-.3-73-48.8,66.2,27.3-61.3-40.2,69,24.2c-50.9-31.6-101.9-63-149.8-97.8l-43,31.2-19.3-12.6-27.7,5.6-65.6-48.1-85.3,61.1M410.6,286.2l1.2.3c14.9-9.3,32.3-16.5,47.1-25.9M571.7,224.5l15.8,15-17.9-9.2c-1.6-1,1.4-5.8,2.1-5.8Z"/>
  <path d="M564,264.7c-.2-1.3,1.6-.6,2.4-.3,7.3,1.8,14.5,5.4,21.9,7.2l-44.9-29.9-53.3,32.6,50.3-20.5-2.3,28.6,46.6,10.3-29.6-19.8,34.9,8.2-26-16.4Z"/>
  <path d="M354.6,277l30-14c1.4-1.4.7-3.4.8-5.1l-30.8,19.1Z"/>
  <polygon points="533.3 218.5 532.4 229.3 547.8 209.5 533.3 218.5"/>
  <path class="st14" d="M569.6,230.3l17.9,9.2-15.8-15c-.7,0-3.7,4.8-2.1,5.8Z"/>
  <path class="st14" d="M457.7,246.7c1,.4,3.4-1.4,4.9-1.1l-1.4-1.9-15.7-7.6c2.7,1.9,9.6,9.6,12.2,10.6Z"/>
  <g id="layer1">
    <path id="path2996" class="st11" d="M498.4,301.9c-6-.8-14.7-3.3-25.6-7.6-6.3-2.5-33.5-13.6-40.7-16.7-1.1-.5-4.2-1.7-6.8-2.8-7.5-3.1-18.1-7.5-21.2-8.8-5.4-2.3-24.9-10.3-33.1-13.6-9.2-3.7-9.1-3.7-14.4-9.7-5.2-5.9-8.4-9.5-9.5-10.6-1.2-1.3-1.2-1.4.2-.7,1.8.9,20.3,6,45.8,12.8,36,9.5,74,19.3,95.2,24.5,14.5,3.6,20.2,4.9,28.6,6.6,10.1,2,12.3,2.8,13.7,4.9,1.5,2.3.1,6.7-3.6,11.1-7.4,8.7-16.8,12.2-28.8,10.7ZM458.2,260.7c-.9-.4-1.4-1.8-1.7-4.7-.4-3.9-1.5-6-3.9-7.9-2.8-2.1-7.4-3.9-10.1-3.9-1.1,0-2.6,0-3.4.2-1.5.2-3.2-.1-3.5-.8-.1-.3.2-.9.8-1.5,1.6-1.6,3.4-4.8,3.9-6.6.2-.9,1.2-2.7,2.3-4,2.5-3.2,4.5-6.2,4.5-6.9s-.3-.8-.6-1.1c-.6-.6-.6-.6-.6.2,0,1.1-1.2,3-3.9,6.3-1.8,2.2-2.6,3.6-3.4,5.9-1.2,3.3-2.3,4.9-3.7,5.2-2.9.6-11.1-2.9-10.4-4.4.1-.2,2.4-1.6,5-3,2.7-1.4,4.8-2.7,4.8-2.9,0-.7-2-.2-4.4,1.1-7.8,4.3-10.9,5.8-11.3,5.8s-.5-.3-.2-1.3c.2-.7.3-1.4.2-1.4s-1,.7-1.9,1.7c-3.3,3.4-5.1,4.8-8.3,6.1-1.7.7-3.3,1.5-3.6,1.7-1,.9-3.3.5-12.6-2.4-6-1.8-6-1.9-6.8-3.2-1-1.7-2.5-3.1-5.8-5.1-2.6-1.6-3.4-2.6-2.1-2.6s1.2-.4,1.8-.8c.7-.4,1.7-.8,2.2-.8,1.7,0,4.1-1.1,9.1-4.3,3.8-2.4,6.1-3.5,11-5.5,6.3-2.5,10.1-4.4,9.3-4.6-.3,0-1.4.2-2.5.7-1.1.4-2.1.8-2.3.8s1.1-1.1,2.7-2.4c1.6-1.3,4.3-3.6,5.9-5.1,3.3-2.9,4.6-3.5,8-3.5s2.9.2,5.6,1.3c2.7,1,3.8,1.7,6.3,3.9,3.4,3,5.4,4.2,13.4,8.5l1.5.8,1.4-.9c1.1-.8,2-1,4.7-1.3,1.8-.2,4.8-.3,6.6-.3,5.1.2,5.2.3,9.7,8.6,3.3,6.1,4.8,9.7,4.8,11.1s-.5,1.9-1.2,3c-1.1,1.6-1.2,2-1,3.5l.2,1.7-3.7,4.1c-2,2.2-4.7,5.3-5.9,6.9-1.2,1.5-2.6,3.1-3.2,3.4-1.3.7-2.8,1-3.7.6h0ZM453.4,258.7q-2.4-.7-3-2.6c-.7-1.9-2.5-5-3.2-5.3-.2-.1-.3-.7-.2-1.3.2-.8,0-1.3-.5-1.7-1-.9-2.7-1.5-4-1.5-.6,0-1.6-.2-2.1-.5l-1-.4h1.2c6-.3,10.7,1.9,13.2,6.1,1.3,2.2,2.4,6,2.1,7.3v.7c-.1,0-2.5-.7-2.5-.7h0ZM446.9,257c-.4-.2-6.5-1.9-13.4-3.8l-12.6-3.5,1.8-1.8c2.1-2.1,5.8-3.7,8.6-3.7,2.5,0,6.8,1.3,9.3,2.8,3,1.8,7.7,6.9,8.7,9.6.2.6.1.7-.7.7-.5,0-1.3-.1-1.7-.3h0ZM383.9,240.1c-1.4-.4-4.4-3.3-4.7-4.3-.1-.5-.1-1,0-1,.5,0,5.1,3.8,5.6,4.6.7,1.1.6,1.2-1,.7h0ZM373,237.3c-5.5-1.5-8.9-2.5-8.9-2.8,0-.5,3.5-2.3,5.4-2.7,1.8-.4,3.7.3,5.2,1.7.6.5,2.5,2.1,4.3,3.6,1.8,1.4,3.2,2.6,3.1,2.6s-4.2-1.1-9.1-2.4ZM347.7,230.7c-.8-.3-1.3-.7-1.3-.9.2-.5.6-.3,2.1.6,1.6,1,1.2,1.1-.8.3ZM471.7,224.2c-.3-.5-.8-1.5-1-2.3-1.1-3.2-4.5-5-9.4-5s-9.4.6-10.5,1.4c-.6.4-1.2.7-1.3.7-.7,0-10.5-6-11.4-7-.7-.8-.9-1.3-.7-2.1.1-.6,0-1.7-.2-2.5l-.4-1.4.8.8c.4.4,1.1,1.3,1.4,2s.8,1.2,1,1.2c.5,0,.5,0-1.9-4.2-2.2-3.9-5-7.2-8.5-10-1.3-1-3.4-2.1-7.2-3.7-3-1.2-6.1-2.7-7-3.2-3.2-1.9-9.3-6-12-8.1-1.5-1.2-3.6-2.6-4.7-3.3-2-1.3-2.4-2-1.2-2s2.1-1,2.1-2.9.6-2.6,2.2-2.3c1,.2,5.4,3.4,7.5,5.5.7.6.9.8.7.4-.2-.4-.4-.9-.3-1,0-.2,2.2.9,4.8,2.3,2.5,1.4,5.4,3,6.4,3.6,1,.5,3.1,2.2,4.7,3.7,2.9,2.8,3.8,3.2,2.6,1.4-.4-.5-.6-1.1-.5-1.1.4-.3,4.6,1.3,6.6,2.5,3.3,2,4.2,2.4,5.5,2.4.7,0,1.6.2,2,.4,1.7.9,3.4,1.2,4.5.7.9-.4,1.3-.4,2.7,0,1.6.4,4.9,2.6,4.9,3.3s.3.3.7.3,1.4.3,2.2.6c1.2.5,1.7.5,2.3.2,1.1-.5,1.4,0,.6,1.2-1.2,2-.5,5.1,1.5,6.4.9.6,1.6,1.8,2,3.2.2.8.5,1.2,1,1.2,1.2,0,4.8-1.9,7.6-3.9,2.8-2.1,3.5-2.4,3.9-1.6.2.4.6.4,2.1.3,1.6-.2,2.1,0,4.2,1,3.1,1.5,8.6,3.7,8.9,3.5,0,0-.2-.3-.7-.5-.5-.2-.8-.5-.8-.6,0-.4,4.8-1.1,8.4-1.1,3,0,3.5,0,4.7.7.7.4,1.9.8,2.6.8.7,0,2,.3,2.8.5l1.5.4-.3,1.9c-.1,1-.4,2-.5,2.1s-1.5.3-3,.4c-6.3.3-9.6.8-12.6,1.9-1.6.6-5.1,1.7-7.7,2.4-2.6.7-5.6,1.6-6.6,2s-2.5.9-3.4,1.1c-2.4.6-2.5.9-.3.7l1.9-.2-.6.8c-.3.4-1.3,1.7-2.1,2.9-.8,1.2-1.6,2.1-1.7,2.1s-.4-.4-.7-.9h0ZM508.3,212.4c-1.2-.4-1.1-.9,0-.9s1.4-.9,1.4-3.5-.2-1.5-.6-1.5-.5-.2,0-.9c.4-.5.9-.9,1.1-.9.6,0,.9.8.5,1.3-.2.2-.4.6-.4.9,0,.3.1.3.7,0,.4-.3.9-.4,1-.3.5.4.3,1.6-.2,1.8-.3.1.2.6,1.3,1.5l1.8,1.3-1.3-.2c-1.2-.2-1.5,0-2.5.9-1.3,1.2-1.6,1.3-3,.7h0ZM506.5,205.6c-.6-.5-.5-1,.2-1s.6.4.9.8c.5.6.5.8.1.8s-.8-.3-1.2-.6ZM464.7,204.8c-1.7-.8-4.1-4.4-4.3-6.3,0-.9,0-1.9,0-2.2.2-.5.4-.4,1.3.3,2.1,1.5,4,1.6,7.8.4.7-.2.7-.1.6,1.2-.1,1.4,0,1.4.8,1.3.5,0,.9,0,.9.1s.4.5,1,.7c1.4.5,1.3.8-.6,1.8-.9.5-2.5,1.4-3.6,2.1-2.2,1.3-2.5,1.4-4,.7h0ZM470.3,201.6c0-.2-.3-.4-.6-.7-.6-.4-4.2-1.3-4.5-1.2-.1.1,4.1,1.9,4.8,2,.2,0,.3,0,.3-.2h0ZM472.5,199.2c-1-.8-1.4-1.3-1.4-2s-.2-1-.4-1.1c-.2,0-1.2.2-2.3.6-3,1.3-6,.6-7.2-1.6-.3-.6-.7-1.1-1-1.1-.7,0-.4-1.4.4-3,.5-.8.7-1.5.6-1.6-.3-.3-.4,1.8-.9,1.4-.3.5-3,0-2.8-1.1,0-.7-.8-1.2-.6-1.5.2-.4-1.4-1-.3-1.9s.1-1.5,1.3-2.3c1.3-.9.4-3.2,1.9-2.6-.3,0,1.2-2,1.4-2.1,1.1-.3,1.5-.2,3.4-.7.8-.2,2.5,0,1.7-.1-.7-.2,2-.2,2.8-.4.5-.1,1,0,2,.2,1.3.1,1,.4.9.2-.3-.6,1.8.3,1.4.2-.5-.1,4.5.7-.2,1.9.5,0,1.6-1.6,2.2-1.4.9.3,1.7,1.2,1.8.9.6.8-.4-.4.9.5,1.1.7,1,1.6,1.4,1.1.4-.5,1.4.7,1.8,1.5.4.8-1.5.2-.2.4-.5-2.1,2.3,1.4,1.4,1.7-1,.3-2-2.6-.5-2.2,1.4-.3,4.4,2.6,3.3,2.6l.4.9c0,.3-.2.6-.5.7h0c2.2,1,.6,2.8-1,2.5-.8-.2,0-1,.6,0,.4.5,0,.7-.2.8-.2.1-.5,1.8-.6,1.6,0-.2-.4.7-.6.8-.7.5-1.7.4-1.7-.5.2.7-.2.7-.8.3-.5-.3-.7-.3-1.1.2-.4.5-.4.4-.4-.4,0-1.1.6,0,.2.7-.1.3-1.6-1.1-1.9-1.1s-.2-.3,0-.6c.5-.8.7.6,0,.6s0-1.7,0-1.3.3,1.4,0,1.3c-.2-.1-1.3-.3-1.3-.7,0-1,.9-.6.3.4-.8-.6-.6.1-.7-1,.7,1.6-2.7-.4-.5-.4-.4,1.1-5-.1-5-1.7,0-1,1,.9.4,1-.9.1-1.5-1.6-.8-.6.5.7.4.7-.3.3-.4-.3-1.6.1-2.4-.6-1.2-1,1.5.9-1.4-.5-.4.3-.9-1-.5-.5.5.6.4.6-.4.4-.5-.1-1.1-.3-1.4-.4-.2,0-.6.3-.9.8l-.4.9h2.1c3.5-.4,11.1,1.8,13.2,3.6.5.4,1,1.3,1.1,2,.2,1.4-.8,3.9-1.5,3.9s-.8.3-1.2.6c-1.1,1-2.7.8-4.4-.4h0ZM477.5,198c.4-.6.8-1.4.8-1.8,0-.7,0-.6-.4.2-.5,1.6-1.5,2.3-3.1,2.1-.8,0-1.2,0-1.1.1.1.2.9.3,1.6.3,1.1,0,1.5-.2,2.2-1ZM390.2,175.1c-.3-.7.2-1.3.7-.8.3.3.3.3.3-.1,0-.9-.7-1.7-1.9-2.2-.6-.2-1.1-.7-1.2-1.1,0-.7.5-.9.9-.3.4.5,2.6.4,2.6-.2s-.3-.6-.6-.6c-.6-.2-.6-1.1,0-1.3.2,0,.9.1,1.5.4,1.1.6,1.5.3,1.3-.9-.1-1,.7-.9,1.4.1.8,1.1,1.6,1.2,2.2.2.7-1.2,1.1-.9,1.2.9,0,.9,0,2.2,0,2.8,0,1.6-.3,2.7-1.1,3-.4.2-2.2.4-4,.5-2.8.2-3.3.1-3.5-.3h0Z"/>
  </g>
  <path class="st14" d="M461.2,286.1c.1,0,.3,0,.4.1,0-.2,0-.5.1-.7,0-.3.2-.6.3-.9.1-.4.3-.7.5-.9.1-.1.2-.2.3-.3,0,0,0-.1,0-.2,0,0-.1-.1-.2-.1,0,0,0,0-.1,0-.2.1-.4.2-.7.3-.3.1-.7.2-1.2.2s-1,0-1.6-.1c-.6,0-1.2-.3-1.9-.6-.7-.3-1.3-.6-1.8-1-.5-.4-.9-.8-1.2-1.2-.3-.4-.5-.9-.7-1.4-.2-.5-.3-.9-.3-1.4,0-.5,0-.9,0-1.3,0-.4.1-.8.2-1.2.3,0,.7.2,1.3.5.6.2,1.5.5,2.5.9.6.2,1.1.4,1.6.6.5.2.9.4,1.3.6.4.2.7.4.9.6s.3.4.3.6c0,0,0,.2.2.3.1.1.2.1.3,0,.1-.3.3-.6.4-.8.2-.3.4-.5.5-.7.2-.2.4-.4.5-.5.2-.2.3-.3.3-.4,0,0-.1-.1-.2-.2-.1,0-.2,0-.3,0-.2,0-.4,0-.8,0-.3,0-.7,0-1.2-.2-.4,0-.9-.2-1.4-.3-.5-.1-1-.3-1.5-.5-.2,0-.6-.2-1-.4-.4-.2-.9-.3-1.3-.5-.5-.2-.9-.4-1.3-.5-.4-.2-.6-.3-.7-.3.2-.6.6-1.2,1-1.8s.9-1,1.5-1.3c.6-.4,1.2-.6,1.9-.7.7-.1,1.4,0,2.2.2.7.2,1.3.5,1.8.8.5.3.9.7,1.2,1,.3.4.6.7.7,1,.2.3.2.6.3.8,0,.2,0,.3.3.4.2,0,.3,0,.4,0,.2-.4.5-.7.7-1,.2-.3.4-.5.6-.7.5-.5.9-1,1.4-1.3.5-.3,1-.6,1.5-.7.3,0,.4-.2.3-.3,0-.1-.3-.3-.6-.5-.3,0-.5,0-.8.2-.3.2-.6.4-.8.7-.3.3-.5.5-.7.7-.2.2-.3.3-.4.3-.1,0-.4-.2-.7-.3-.3-.1-.7-.3-1.1-.5-.4-.2-.9-.4-1.4-.5-.5-.2-.9-.3-1.3-.5-1.4-.4-2.7-.7-4-.8-1.3,0-2.4,0-3.5.4-1,.3-1.9.9-2.7,1.7-.7.7-1.2,1.7-1.5,3-.2.9-.2,1.7,0,2.5.2.8.5,1.6,1,2.3.5.7,1.2,1.4,2.1,2.1.9.7,1.9,1.2,3.2,1.8.3.1.7.3,1.1.4.4.2.9.3,1.3.5.4.2.9.3,1.3.4.4.1.7.3.9.4.3.1.4.3.4.5,0,.2,0,.4,0,.5,0,.1,0,.2.2.2ZM445.4,279.1c0,.2-.2.3-.3.5,0,.2-.2.4-.2.5,0,.2,0,.3.1.3.2,0,.3,0,.3,0,0,0,.1-.1.1-.3,0-.2,0-.3.2-.4,0-.1.2-.3.2-.4,0-.1.2-.2.2-.3,0,0,.2-.2.2-.2,0,0,.2-.1.4-.3.2-.1.4-.3.6-.5.2-.2.4-.4.6-.6.2-.2.3-.4.3-.5,0,0,0,0-.2-.1-.1,0-.2,0-.2,0-.2.2-.5.4-.9.6-.3.2-.7.3-1.1.3-.4,0-.8,0-1.3,0-.4,0-.9-.2-1.3-.3-.6-.3-1.2-.6-1.7-1.1-.5-.5-.9-1-1.2-1.7-.3-.7-.5-1.4-.6-2.2,0-.8,0-1.8,0-2.8.1-.7.3-1.4.6-2,.3-.6.6-1.1,1.1-1.5.4-.4.9-.6,1.5-.7.6-.1,1.2,0,1.9.2.6.2,1.2.5,1.6.8.4.3.8.7,1.1,1,.3.4.5.7.6,1.1.1.4.2.7.1,1.1,0,.1.2.2.3.2,0,0,.1,0,.2,0,0,0,.1,0,.1-.1,0-.1,0-.2.1-.4,0-.2.1-.3.2-.5,0-.2.1-.3.2-.5,0-.2.2-.3.2-.5.1-.3.3-.6.5-.8.2-.3.4-.5.6-.7.2-.2.4-.3.6-.4.2,0,.4-.1.6,0,0,0,.1,0,.2,0,0,0,.1,0,.2-.2,0-.1,0-.2-.2-.3-.1,0-.3-.1-.4-.1-.5,0-.9.2-1.2.5-.3.3-.6.6-1,1,0,0-.3-.2-.6-.3-.3-.2-.7-.3-1.1-.5-.4-.2-.8-.3-1.2-.5s-.7-.3-.9-.3c-1-.3-2-.5-3.1-.5-1,0-1.9.2-2.7.5-.8.3-1.5.8-2,1.5-.5.7-.9,1.5-1,2.5-.1,1.1,0,2.1.2,3s.7,1.7,1.2,2.4c.5.7,1.2,1.3,1.9,1.8.7.5,1.5,1,2.4,1.3.2,0,.4.2.7.3.3,0,.5.2.8.3.2,0,.5.2.7.3.2,0,.4.1.5.2,0,0,0,.2,0,.4ZM431.7,266.9c-.3,0-.6-.1-.9-.2-.3,0-.6-.1-.9-.2-.3,0-.5,0-.7-.1,0-.3.2-.7.3-1,.1-.4.3-.8.4-1.2.2-.4.3-.8.5-1.1.2-.4.3-.7.5-1,.2-.3.3-.5.5-.7.1-.2.3-.2.4-.2,0,0,.1,0,.2.2,0,.1,0,.3.1.7,0,.2,0,.6.1,1,0,.4,0,.9.1,1.4,0,.5,0,.9.1,1.4,0,.5,0,.8.1,1.1-.3,0-.6-.1-.9-.2ZM429.6,261.3c-.2.8-.4,1.6-.6,2.4-.2.8-.4,1.5-.7,2.2-.2.7-.4,1.3-.7,1.8-.2.5-.4.9-.6,1.2-.2.4-.4.8-.6,1-.2.2-.4.4-.6.4-.2,0-.3,0-.4,0,0,0,0,0,0,0,0,0,0,0,0,.1s0,0,0,0c0,0,0,0,0,0,0,0,0,0,.2,0,0,0,.2,0,.4.1.2,0,.4.1.6.2.2,0,.4.2.6.3.2,0,.4.2.6.3s.3.2.5.2c.1,0,.2.1.2.1.2,0,.4.1.6,0,.2,0,.3,0,.4-.1,0,0,.1,0,.2,0,0,0,0,0,0,0,0,0,0,0-.1-.1,0,0-.1,0-.2,0,0,0-.2,0-.5-.2-.3-.1-.5-.3-.7-.6-.2-.3-.2-.6-.2-1,0-.2,0-.4.1-.7,0-.2.1-.5.2-.7,0-.2.2-.5.2-.7,0-.2.2-.5.2-.7.2,0,.5,0,.8.1.3,0,.7.2,1.1.4.3.1.7.3,1,.4.3.1.6.3.8.4,0,.5,0,1,.1,1.6,0,.6,0,1.1.1,1.5,0,.5,0,.9,0,1.2,0,.3,0,.5,0,.6,0,0,0,0-.3,0-.2,0-.3-.1-.4-.1,0,0,0,0,0,0,0,0,0,0,0,.1,0,0,0,.1,0,.2,0,0,0,0,0,0,0,0,.1,0,.2,0,.1,0,.3,0,.4.1.2,0,.3.1.5.2.2,0,.3.1.5.2.4.2.8.3,1.1.5.3.1.5.2.7.3.2,0,.3.1.4.2.1,0,.2,0,.2.1,0,0,.1,0,.1,0,0,0,0,0,0-.2,0,0,0-.1,0-.2,0,0-.1,0-.3,0-.1,0-.2,0-.4-.1-.1,0-.2,0-.2,0,0,0,0,0-.1,0,0-.2-.2-.6-.2-1.2,0-.6-.2-1.3-.3-2,0-.8-.2-1.6-.2-2.5,0-.9-.1-1.8-.2-2.6,0-.8,0-1.6-.1-2.3,0-.7,0-1.2,0-1.4,0-.1,0-.2.1-.2.4.1.8.2,1.1.3.3,0,.6.2.8.2.2,0,.4,0,.6,0,.1,0,.2-.1.2-.3,0,0,0-.1,0-.2,0,0,0-.1-.1-.1,0,0-.2,0-.5,0-.3,0-.7-.1-1.1-.2-.4-.1-.9-.2-1.4-.4-.5-.1-1-.3-1.5-.4-.2,0-.5-.2-.9-.3-.4-.1-.9-.3-1.4-.5-.5-.2-1-.4-1.5-.7-.5-.3-1-.5-1.5-.8,0,0-.1.1-.1.2,0,0,0,.2,0,.3,0,.1,0,.2.1.2.2.1.5.3.9.4.4.2.7.3,1.1.5.4.2.8.3,1.1.4.4.1.6.2.8.3l-1.6.4ZM419.2,267.5c-.3-.1-.6-.3-.7-.6-.1-.3-.2-.5-.2-.8,0-.6,0-1.1.1-1.5,0-.4.2-.8.4-1,.2-.3.3-.5.5-.6.2-.1.4-.2.6-.2,0,.1.2.3.3.6.1.3.3.6.4,1,.2.4.3.8.5,1.2.2.4.3.8.5,1.2.2.4.3.8.4,1.1.1.3.2.6.3.8h0c0,.1,0,.2,0,.2,0,0,0,0,0,0h0c0,.1,0,.1,0,.2.3,0,.6.2,1,.3s.7.3,1.1.4c.3.1.6.2.8.4.2.1.5.2.8.4,0,0,.1,0,.2.1,0,0,.1,0,.2.1,0,0,.1,0,.2,0s0,0,0-.1c0,0,0,0,0-.1,0,0,0,0-.1-.1-.1,0-.3-.2-.6-.4-.2-.1-.5-.3-.9-.5-.1-.1-.3-.3-.5-.7-.2-.3-.4-.7-.6-1.2-.2-.5-.4-.9-.7-1.5-.2-.5-.4-1-.7-1.5-.2-.5-.4-1-.6-1.4-.2-.4-.3-.8-.4-1,.5,0,1-.3,1.5-.6.4-.3.9-.7,1.2-1.1s.7-.8,1-1.1c.3-.4.6-.6.8-.7h0s0,0,0,0h0s0,0,.2,0c0-.2,0-.3-.3-.4-.2,0-.3,0-.5,0-.1,0-.2,0-.4,0-.1,0-.2,0-.4-.1-.1,0-.3,0-.4-.1-.1,0-.3,0-.4-.2-.2,0-.4-.1-.5-.2-.2,0-.4-.1-.5-.2-.2,0-.3-.1-.4-.2,0,0-.1,0-.1.3,0,.1,0,.2.2.3.1,0,.3.1.4.2.2,0,.3.2.4.3s.2.3.2.5c0,.4,0,.8-.2,1.2-.1.3-.3.6-.5.9-.2.2-.4.4-.7.6-.3.1-.6.2-.9.3,0-.2-.2-.5-.4-1-.2-.5-.4-.9-.6-1.5-.2-.5-.4-1-.6-1.5-.2-.5-.3-.8-.4-1,.1,0,.3,0,.4.1.2,0,.3,0,.4.1.1,0,.2,0,.3,0,0,0,.1,0,.1-.2,0,0,0-.2,0-.2,0,0,0,0-.1-.1s-.3,0-.9-.2c-.5-.1-1.3-.3-2.3-.7-.3-.1-.6-.2-.8-.3-.2,0-.4-.2-.6-.2,0,0,0,0,0,0,0,0,0,0-.1,0s0,0-.1,0c0,0,0,0,0,.1,0,0,0,.2.1.2,0,0,.2,0,.3.1.1,0,.2,0,.4.2s.3.2.4.3c0,0,.2.3.3.5.1.2.3.5.5.9.2.3.3.7.5,1.1.2.4.4.8.5,1.2.2.4.3.8.5,1.2.2.4.3.7.4,1-.7,0-1.2.3-1.6.6-.4.3-.7.6-.9,1-.2.4-.3.7-.4,1.1,0,.4,0,.7,0,.9,0,.1,0,.2,0,.4,0,.1,0,.2,0,.4,0,0,0,0,0,0-.4-.1-.7-.2-.9-.2s-.4,0-.6.1c-.2,0-.3.2-.3.3,0,.1,0,.3,0,.4,0,0,0,.2,0,.2,0,0,.1,0,.2.1.1,0,.2,0,.2,0,0,0,0,0,0,0,0-.2,0-.3,0-.4,0-.1.1-.2.3-.2.1,0,.3,0,.5,0,.2,0,.5.1.8.3.3.1.6.2.8.3.2,0,.4.2.5.2.1,0,.3.1.4.2.1,0,.2.1.3.1.2,0,.3,0,.3,0s0-.2,0-.2h0ZM408.9,254.1c0-.1,0-.2.2-.3,0,0,.2-.2.4-.2s.3,0,.4,0c.1,0,.3,0,.4,0,.2,0,.4.2.7.4.2.2.4.5.6.8.2.3.3.7.4,1.1.1.4.2.9.2,1.4,0,.3,0,.6,0,.9,0,.3-.1.5-.2.7,0,.2-.2.4-.3.5,0,.1-.2.2-.3.3-.1,0-.3.1-.4.1-.2,0-.4,0-.6-.1-.3-.1-.5-.2-.8-.3-.2,0-.4-.2-.5-.3,0-.4,0-.8-.1-1.3s0-.9,0-1.3c0-.4,0-.8,0-1.2,0-.4,0-.6,0-.8v-.3ZM409.2,259.6s0,0,0,0c0,0,0,0,.1,0,0,0,.2,0,.3.1.1,0,.3.1.4.2.1,0,.3.2.5.2.2,0,.3.2.4.3.3.3.6.6.9,1,.3.4.6.8.9,1.3.3.4.5.9.8,1.3.2.4.5.8.6,1,.2.4.5.8.8,1.1s.6.7.9,1c.3.3.6.6.9.9.3.3.7.5,1,.6.7.3,1.1.3,1.3,0,0,0,0-.1,0-.2,0,0,0,0,0-.1,0,0,0,0-.1,0,0,0,0,.1-.2.2,0,0-.2,0-.3,0,0,0-.2,0-.3,0-.1,0-.2,0-.3,0-.4-.2-.8-.5-1.1-.8-.3-.4-.6-.8-.9-1.3-.3-.5-.5-1-.8-1.5-.2-.5-.5-1-.6-1.4,0,0,0-.1.1-.2,0,0,0-.1,0-.3,0-.3-.2-.6-.4-.9-.2-.3-.4-.6-.7-.8-.3-.3-.6-.5-.9-.7-.3-.2-.7-.4-1-.5.3,0,.5-.1.8-.2.3-.1.6-.3.8-.5.3-.2.5-.5.6-.9s.2-.8.2-1.2c0-.5-.1-1-.4-1.4-.2-.4-.5-.8-.8-1.2-.3-.4-.7-.7-1.1-.9s-.8-.5-1.3-.6c-.3,0-.5-.1-.8-.1-.3,0-.5,0-.8,0-.2,0-.4,0-.6,0-.2,0-.3,0-.4.1,0,0-.1,0-.2,0-.5-.2-1-.3-1.3-.5-.4-.2-.6-.3-.8-.3-.1,0-.2,0-.2.1,0,.1,0,.2.2.3s.3.1.4.2c.2,0,.3.1.5.2.2,0,.3.2.4.3,0,.1,0,.3.1.5s0,.5.2.9c0,.4.1.8.2,1.4,0,.5.1,1.2.2,1.9,0,.8.2,1.5.2,2,0,.5,0,.9,0,1.2,0,.3,0,.6,0,.8,0,.2,0,.4,0,.6-.1,0-.2,0-.3,0-.1,0-.2,0-.4,0-.2,0-.4,0-.5-.1,0,0-.1,0-.1.1,0,0,0,.1,0,.2s0,0,.1.1c0,0,.2,0,.5.2.3,0,.8.2,1.4.5.5.2.9.4,1.3.6.4.2.7.3.9.4,0,0,.2,0,.2,0,0,0,0,0,0,0,0,0,0-.2-.2-.3-.1,0-.2-.1-.4-.2-.2,0-.3-.2-.5-.3-.2,0-.3-.2-.5-.4,0-.3-.2-.7-.2-1.2,0-.5-.1-1-.2-1.5v-1.3ZM404.3,261.5c.5-.1.9-.4,1.2-.8.3-.4.6-.9.7-1.6.1-.6.2-1.3,0-2.1,0-.8-.3-1.6-.6-2.3-.3-.7-.7-1.4-1.2-2-.5-.6-1-1.1-1.5-1.5-.5-.4-1.1-.7-1.7-.9-.6-.2-1.1-.2-1.6,0-.5.1-.9.4-1.2.8-.3.4-.5.9-.6,1.6-.1.6,0,1.4,0,2.3.1.8.4,1.5.7,2.2.3.7.7,1.3,1.1,1.8.4.5.9,1,1.4,1.4.5.4,1,.7,1.6.9.6.3,1.2.3,1.6.2ZM401.8,260.2c-.3-.3-.7-.7-1-1.2-.3-.5-.6-1.1-.8-1.7-.3-.7-.5-1.4-.6-2.3-.1-.7-.2-1.3-.2-1.9,0-.6,0-1,.2-1.4.1-.4.4-.6.6-.8.3-.2.6-.2,1,0,.4.1.7.4,1.1.7.4.4.7.8,1,1.4.3.5.6,1.2.8,1.9.2.7.4,1.5.5,2.2,0,.6.1,1.2,0,1.8,0,.5-.1,1-.3,1.3-.1.3-.4.6-.6.7-.3.1-.6.1-1,0-.3-.1-.7-.4-1-.7ZM395.2,257.8c-.1,0-.3-.1-.4-.2-.1,0-.3-.2-.3-.3,0,0,0-.2-.2-.4,0-.2-.1-.4-.2-.7,0-.3-.1-.6-.2-.9,0-.3-.1-.6-.2-1v-.6c0-.2,0-.3.1-.4.1,0,.2-.1.3,0,.2.1.5.4.7.6.2.3.5.6.7.9.2.3.4.7.6,1.1.2.4.4.7.5,1,.2.3.3.6.4.8.1.2.2.4.2.4.2.4.5.8.7,1.2.3.4.5.7.8,1,.3.3.5.6.8.8.3.2.5.4.7.4,0,0,.2,0,.3,0s0-.1,0-.3c0,0,0,0,0-.2,0,0,0-.1,0-.1,0,0-.2,0-.3,0,0,0-.2,0-.2,0-.3-.1-.5-.4-.7-.7-.2-.3-.5-.7-.7-1-.2-.4-.4-.8-.6-1.2-.2-.4-.4-.8-.5-1.1,0,0,0-.1,0-.2,0,0,0-.2,0-.3,0-.4-.2-.7-.3-1.1-.2-.4-.4-.8-.6-1.1-.2-.4-.5-.7-.8-1-.3-.3-.6-.5-.9-.6,0,0-.2,0-.4,0,0-.1.2-.2.3-.4.1-.2.3-.3.5-.5.2-.2.3-.4.5-.6.2-.2.4-.5.5-.7s.3-.4.4-.6c.1-.2.2-.4.3-.5h0c0-.2,0-.2-.2-.3,0,0-.1,0-.2,0,0,0-.1,0-.2,0,0,0-.1,0-.2,0l-.9-.3c-.3,0-.5-.2-.7-.3-.2,0-.3-.1-.4-.1,0,0-.1,0-.1,0,0,0,0,.2,0,.3,0,.2,0,.2.2.3,0,0,0,0,.1,0,0,0,.1,0,.2,0,0,0,.1,0,.2,0,0,0,.2,0,.2,0,0,0,0,.1,0,.2,0,.2,0,.5,0,.7,0,.2,0,.4-.1.6,0,.2-.1.4-.2.5,0,.2-.2.3-.2.5-.2.4-.4.7-.6.9-.2.2-.4.4-.7.5,0-.4-.2-.9-.3-1.5s-.2-1.1-.3-1.5c0-.5-.2-.9-.2-1.2s0-.5,0-.5c0,0,0,0,.1,0,0,0,0,0,.1,0,0,0,.2,0,.3,0,0,0,.2,0,.3,0,0,0,.1,0,.2,0,0,0,0,0,0-.2,0-.1,0-.2-.2-.2,0,0-.1,0-.2,0s-.2,0-.3,0-.3,0-.4,0c-.2,0-.4-.1-.7-.2-.4-.1-.7-.2-1-.4-.3-.1-.5-.2-.5-.2-.1,0-.2,0-.2,0,0,0,0,0,0,.1,0,0,.1.1.3.3.2.1.4.2.7.3,0,0,.1.2.2.4,0,.2.1.4.2.8,0,.3.2.7.3,1.2.1.5.2,1,.4,1.7.1.7.3,1.3.4,1.9.1.6.2,1.1.3,1.5,0,.4.1.8.2,1,0,.3,0,.4,0,.5,0,0,0,0-.2,0,0,0-.2,0-.3,0-.1,0-.2,0-.3,0-.1,0-.2,0-.3,0,0,0,0,0,0,0,0,0,0,.2,0,.2,0,0,0,0,0,0,0,0,0,0,0,0,0,0,.1,0,.2,0,0,0,.2,0,.3,0,.2,0,.3,0,.6.1s.6.2,1,.3c0,0,.2,0,.3.1.1,0,.3.1.4.2.1,0,.2.1.4.2.1,0,.2,0,.2.1.1,0,.2,0,.2,0,0-.1-.1-.2-.3-.3h-.1Z"/>
  <g>
    <g>
      <polygon class="st13" points="821.4 365.1 818.5 359.6 799 359.3 791.4 343.6 804 343.8 801.4 338.8 789 338.6 781.9 324.2 800 324.4 797.6 319.8 767.8 319.3 788.6 364.6 821.4 365.1"/>
      <polygon points="821.4 365.1 821.9 365.1 818.7 359 799.3 358.8 792.2 344.1 804.8 344.3 801.7 338.3 789.3 338.1 782.7 324.6 800.8 324.9 797.8 319.3 767.1 318.9 788.3 365.2 822.2 365.6 821.9 365.1 821.4 365.1 821.1 364.5 788.9 364.1 768.5 319.8 797.3 320.2 799.3 323.9 781.2 323.7 788.7 339.1 801.2 339.3 803.2 343.3 790.6 343.1 798.8 359.8 818.2 360.1 820.8 365.1 821.4 365.1 821.1 364.5 821.4 365.1"/>
      <path class="st1" d="M764.5,353.5c1,3.5-.4,5.3-4.2,5.2h-6.5c-1.8-.1-3.5-.7-5.2-1.7-1.7-1.1-2.8-2.3-3.3-3.7l-9.6-25.1c-.5-1.3-.3-2.4.5-3.3s2.1-1.3,3.7-1.3h6c3.5.1,6.2,1.7,8,4.9h6.1c-3.2-6.2-8.5-9.3-15.9-9.4l-12-.2c-3.3,0-5.8.8-7.4,2.6s-2,4-1.1,6.5l9,25.1c1,2.9,3.2,5.4,6.5,7.6s6.8,3.3,10.4,3.4l13.1.2c8.1.1,10.9-3.5,8.4-10.6h-6.4Z"/>
      <path d="M764.5,353.5h-.6c.5,1.6.4,2.8-.2,3.5-.6.8-1.8,1.2-3.6,1.2h-6.5c-1.7-.1-3.3-.6-4.8-1.6-1.5-1-2.5-2.1-3-3.3l-9.6-25.1c-.4-1.1-.3-2.1.5-2.9.8-.8,1.9-1.2,3.4-1.2h6c1.7.1,3.1.5,4.3,1.2,1.2.7,2.2,1.8,3,3.3l.2.4h7.1c0,0-.3-.4-.3-.4-1.6-3.2-3.9-5.7-6.7-7.4-2.8-1.7-6.1-2.5-9.9-2.5l-11.9-.2c-3.4,0-6,.9-7.7,2.7-1.7,1.9-2.1,4.2-1.2,6.9l8.9,25.1c1.1,3.1,3.4,5.8,6.9,8,3.5,2.3,7.1,3.4,10.8,3.5l13.1.2c4.2,0,7-.8,8.5-2.7,1.5-1.9,1.5-4.7.2-8.4l-.2-.6h-7.5c0-.1.1.4.1.4h.6c0,0,.2.6.2.6h6.4c0,0-.2-.4-.2-.4h-.6c1.2,3.4,1.1,5.9-.2,7.6-1.3,1.7-3.9,2.5-7.9,2.5l-13.1-.2c-3.5,0-6.8-1.1-10-3.2-3.2-2.1-5.2-4.4-6.2-7.2l-9-25.1c-.9-2.4-.5-4.4,1.1-6.2,1.6-1.7,3.9-2.6,7.2-2.5l12,.2c3.7,0,6.7.8,9.2,2.3,2.5,1.5,4.5,3.7,6.1,6.7h.5s-.2-.5-.2-.5h-6.1c0,0,.2.4.2.4h.5c-.9-1.7-2.2-3-3.6-3.9-1.5-.9-3.2-1.3-5-1.3h-6c-1.8-.1-3.1.4-4,1.3-.9,1-1.1,2.2-.6,3.6l9.6,25.1c.6,1.6,1.9,3,3.7,4.2,1.8,1.2,3.7,1.8,5.6,1.8h6.5c2,.1,3.4-.3,4.2-1.3.8-1,.9-2.4.3-4.3h-.6c0,0,.2.5.2.5l-.2-.5Z"/>
      <path class="st0" d="M697.1,363.5l-5.9-21.1,12.6.2,6.5,21.2,13.1.2-11.9-35.9c-.9-2.6-2.8-4.8-5.7-6.6-2.9-1.8-6-2.8-9.3-2.8l-12-.2c-3.3,0-5.8.8-7.7,2.6s-2.5,4-1.9,6.6l9.1,35.9,13.1.2Z"/>
      <path d="M697.1,363.5h.6s-5.8-20.6-5.8-20.6l11.5.2,6.4,21.2,14.2.2-12.1-36.4c-.9-2.7-3-5.1-6-7-3-1.9-6.3-2.9-9.6-2.9l-11.9-.2c-3.4,0-6,.8-8,2.7-2,1.8-2.6,4.2-1.9,6.9l9.2,36.4,14.2.2-.2-.6h-.6s-.2-.6-.2-.6l-12.5-.2-9-35.3c-.6-2.4,0-4.5,1.8-6.2,1.8-1.7,4.2-2.5,7.4-2.5l12,.2c3.2,0,6.1.9,8.9,2.7,2.8,1.8,4.6,3.9,5.4,6.3l11.7,35.3-12-.2-6.5-21.1-13.6-.2,6,21.7h.6s-.2-.5-.2-.5l.2.6Z"/>
      <polygon class="st3" points="631.6 362.4 627.7 336.4 667.9 362.9 670.9 363 660.6 317.9 654.6 317.8 659.8 341.8 621.6 317.3 618.9 317.3 625 362.3 631.6 362.4"/>
      <polygon points="631.6 362.4 632.1 362.4 628.4 337.4 667.8 363.5 671.6 363.5 661 317.4 654 317.3 659 340.8 621.7 316.9 618.3 316.8 624.6 362.9 632.2 363 632.1 362.4 631.6 362.4 631.5 361.9 625.5 361.8 619.5 317.8 621.5 317.8 660.5 342.8 655.2 318.2 660.2 318.3 670.2 362.4 667.9 362.4 627 335.4 631 362.4 631.6 362.4 631.5 361.9 631.6 362.4"/>
      <polygon class="st8" points="611.9 362.2 611.3 356.7 591.9 356.4 590.8 340.8 603.4 341 602.9 336 590.4 335.9 589.4 321.5 607.5 321.7 606.9 317.1 577.2 316.7 579.2 361.7 611.9 362.2"/>
      <polygon points="611.9 362.2 612.4 362.2 611.8 356.2 592.4 355.9 591.3 341.3 603.9 341.5 603.3 335.5 590.9 335.4 589.9 322 608 322.2 607.4 316.7 576.7 316.2 578.7 362.3 612.5 362.7 612.4 362.2 611.9 362.2 611.8 361.6 579.7 361.2 577.7 317.2 606.5 317.6 606.9 321.3 588.9 321 589.9 336.3 602.4 336.5 602.8 340.5 590.2 340.3 591.4 357 610.8 357.2 611.3 362.2 611.9 362.2 611.8 361.6 611.9 362.2"/>
      <polygon class="st7" points="507.2 360.7 510 332.3 530.6 350.3 553.2 332.9 553 361.3 566.1 361.5 565.3 316.5 559.3 316.5 532.8 336.4 508.4 315.8 502.5 315.9 497.2 360.9 507.2 360.7"/>
      <polygon points="507.2 360.7 507.7 360.7 510.4 333.3 530.5 351 552.7 333.9 552.4 361.9 566.7 362.1 565.8 316.1 559.1 316 532.9 335.7 508.6 315.3 502.1 315.5 496.5 361.4 507.7 361.3 507.7 360.7 507.2 360.7 507.2 360.2 497.8 360.3 503 316.4 508.2 316.2 532.8 337 559.5 316.9 564.8 317 565.6 361 553.5 360.8 553.7 331.8 530.6 349.6 509.6 331.2 506.6 360.7 507.2 360.7 507.2 360.2 507.2 360.7"/>
      <path class="st4" d="M456,360c3.6,0,6.9-1,9.8-3.1,2.9-2.1,4.6-4.6,5.1-7.4l4.4-24.9c.4-2.6-.3-4.7-2.4-6.6-2-1.8-4.6-2.8-7.9-2.8l-23.8-.3-11.4,44.8,26.2.4Z"/>
      <path d="M456,360v.5c3.6,0,7-1,10.1-3.2,3-2.2,4.9-4.8,5.4-7.8l4.4-24.9c.5-2.7-.4-5-2.5-6.9-2.1-1.9-4.8-2.9-8.2-2.9l-24.3-.3-11.7,45.8,26.8.4v-.5c.1,0,.2-.5.2-.5l-25.6-.4,11.1-43.8,23.4.3c3.2,0,5.7.9,7.6,2.7,1.9,1.8,2.7,3.8,2.2,6.2l-4.4,24.9c-.5,2.7-2.1,5-4.9,7-2.8,2-6,3-9.4,3v.5Z"/>
      <polygon class="st6" points="416 359.5 417.5 354 398.1 353.8 410.8 314.4 398.9 314.2 383.3 359 416 359.5"/>
      <polygon points="416 359.5 416.5 359.5 418.2 353.5 398.8 353.2 411.4 314 398.5 313.8 382.5 359.5 416.4 360 416.5 359.5 416 359.5 416.1 358.9 384 358.5 399.2 314.7 410.1 314.9 397.4 354.3 416.8 354.6 415.4 359.4 416 359.5 416.1 358.9 416 359.5"/>
      <path class="st5" d="M353.5,316.4c-3.2,1.8-5.3,3.9-6.5,6.5l-11.3,24.8c-1.3,2.9-1.2,5.4.4,7.5,1.6,2.2,4.2,3.3,7.8,3.3l13.1.2c3.6,0,7.1-1,10.5-3.1,3.4-2.1,5.6-4.6,6.6-7.4l9.3-24.9c1-2.5.6-4.7-1.1-6.6-1.7-1.8-4.1-2.8-7.4-2.8l-12-.2c-3.3,0-6.4.8-9.6,2.6Z"/>
      <path d="M353.5,316.4l-.2-.4c-3.3,1.8-5.6,4.1-6.8,6.8l-11.3,24.8c-1.4,3-1.2,5.7.4,7.9,1.7,2.2,4.4,3.4,8.1,3.5l13.2.2c3.7,0,7.4-1,10.9-3.2,3.5-2.2,5.9-4.8,7-7.8l9.3-24.9c1-2.7.6-5-1.1-6.9-1.7-1.9-4.3-2.9-7.6-2.9l-11.9-.2c-3.4,0-6.7.8-10,2.7l.2.4.2.4c3-1.7,6.1-2.5,9.2-2.5l12,.2c3.2,0,5.5.9,7.1,2.7,1.6,1.8,1.9,3.8,1,6.2l-9.4,24.9c-1,2.7-3.1,5-6.3,7-3.3,2-6.6,3-10,3l-13.1-.2c-3.5,0-5.9-1.1-7.5-3.2-1.5-2.1-1.7-4.4-.4-7.1l11.3-24.8c1.1-2.4,3.1-4.4,6.2-6.1l-.2-.4Z"/>
      <path class="st2" d="M316.5,347.3c-2.2,3.5-5.2,5.2-9,5.2h-6.5c-1.8-.1-3.1-.7-3.8-1.7-.7-1.1-.7-2.3,0-3.7l13.3-24.8c.7-1.3,1.9-2.4,3.5-3.2s3.3-1.3,5-1.3h6c3.5.1,4.8,1.7,3.7,4.8h6.1c2.5-6.1,0-9.2-7.5-9.3l-12-.2c-3.3,0-6.6.8-9.9,2.6-3.3,1.8-5.7,3.9-7.1,6.4l-13.9,24.8c-1.6,2.9-1.7,5.4-.4,7.5,1.4,2.2,3.9,3.3,7.5,3.3l13.1.2c8.1.1,14.2-3.4,18.2-10.5h-6.4Z"/>
      <path d="M316.5,347.3h-.5c-1,1.6-2.2,2.7-3.6,3.5-1.3.8-2.9,1.2-4.7,1.1h-6.5c-1.7-.1-2.8-.6-3.5-1.6-.6-1-.6-2,0-3.3l13.2-24.8c.6-1.1,1.6-2.1,3.2-2.9,1.5-.8,3-1.2,4.6-1.2h6c1.7.1,2.7.5,3.3,1.2.5.7.6,1.7,0,3.2v.4c-.1,0,7,0,7,0l.2-.5c1.3-3.2,1.3-5.7,0-7.3-1.3-1.6-3.9-2.4-7.7-2.5l-11.9-.2c-3.4,0-6.9.8-10.3,2.7-3.4,1.8-6,4.1-7.5,6.8l-13.9,24.8c-1.7,3-1.8,5.7-.4,7.9,1.4,2.2,4.1,3.4,7.7,3.5l13.1.2c4.2,0,7.9-.8,11.1-2.7,3.2-1.9,5.9-4.7,7.9-8.3l.3-.6h-7.5c0-.1-.3.3-.3.3h.5c0,0-.3.6-.3.6h6.4c0,0,.3-.4.3-.4h-.5c-1.9,3.4-4.3,5.8-7.1,7.5-2.9,1.7-6.3,2.5-10.3,2.5l-13.1-.2c-3.5,0-5.8-1.1-7.2-3.2-1.3-2.1-1.2-4.4.3-7.1l13.9-24.8c1.3-2.4,3.5-4.4,6.7-6.1,3.2-1.7,6.3-2.5,9.6-2.5l12,.2c3.7,0,6,.8,7.2,2.3,1.2,1.5,1.2,3.6,0,6.7h.5s.2-.5.2-.5h-6.1c0,0-.2.4-.2.4h.5c.6-1.7.5-3-.2-3.9-.7-.9-2-1.3-3.8-1.3h-6c-1.8-.1-3.6.4-5.4,1.3-1.8.9-3.2,2.2-3.9,3.6l-13.3,24.8c-.8,1.6-.9,3,0,4.1.8,1.2,2.1,1.7,4.1,1.8h6.5c2,.1,3.8-.3,5.5-1.3,1.7-1,3.1-2.4,4.3-4.2h-.5c0,0-.3.4-.3.4l.3-.5Z"/>
      <path class="st10" d="M452.9,319.7h6c1.6.1,3,.6,4,1.5s1.4,2,1.1,3.3l-5,24.9c-.3,1.4-1.2,2.6-2.6,3.7s-3.1,1.5-4.9,1.5h-6.5c0,0,7.9-34.9,7.9-34.9Z"/>
      <path class="st14" d="M452.9,319.7v.5c-.1,0,5.9,0,5.9,0,1.5,0,2.7.5,3.7,1.3.9.9,1.2,1.8,1,3l-5,24.9c-.3,1.3-1,2.3-2.4,3.3-1.4.9-2.8,1.4-4.5,1.4h-5.9c0,0,7.7-34.4,7.7-34.4h-.5s-.1.5-.1.5v-.5c.1,0-.4,0-.4,0l-8.1,35.4h7c1.9.1,3.7-.4,5.3-1.5,1.6-1.1,2.6-2.5,2.9-4.1l5-24.9c.3-1.4-.2-2.7-1.3-3.7-1.1-1-2.5-1.5-4.3-1.5h-6.5c0,0-.1.4-.1.4h.5Z"/>
      <path class="st9" d="M362.3,319.8c1.6-.9,3.2-1.3,4.8-1.3s2.9.5,3.7,1.4c.8.9,1,2,.5,3.3l-10,24.9c-.6,1.4-1.7,2.6-3.4,3.7-1.7,1-3.4,1.5-5.2,1.5s-3.1-.6-3.9-1.6c-.8-1.1-.9-2.3-.3-3.7l10.6-24.8c.5-1.3,1.6-2.4,3.2-3.3Z"/>
      <path class="st14" d="M362.3,319.8l.2.4c1.5-.8,2.9-1.2,4.5-1.2,1.5,0,2.6.5,3.4,1.3.8.9.9,1.8.4,2.9l-10,24.9c-.5,1.3-1.5,2.3-3,3.3-1.6.9-3.1,1.4-4.8,1.4-1.7,0-2.9-.5-3.6-1.5-.8-1-.8-2-.3-3.3l10.6-24.8c.5-1.1,1.4-2.1,2.8-2.9l-.2-.4-.2-.4c-1.7,1-2.9,2.2-3.5,3.6l-10.7,24.8c-.7,1.6-.6,3,.3,4.1.9,1.2,2.3,1.7,4.2,1.8,1.9,0,3.8-.5,5.6-1.6,1.8-1.1,3.1-2.5,3.7-4.1l10-24.9c.6-1.4.4-2.7-.5-3.7-.9-1-2.2-1.5-4-1.5-1.8,0-3.5.4-5.2,1.4l.2.4Z"/>
    </g>
    <path class="st12" d="M688.6,327.5c-.3-1.3,0-2.4.9-3.3s2.2-1.3,3.9-1.3,3.2.5,4.6,1.4c1.5.9,2.4,2,2.8,3.3l2.8,9.7-12.5-.2-2.6-9.7Z"/>
  </g>
</svg>