<?xml version="1.0" encoding="UTF-8"?>
<svg id="Layer_1" xmlns="http://www.w3.org/2000/svg" version="1.1" viewBox="0 0 818 303.8">
  <!-- Generator: Adobe Illustrator 29.4.0, SVG Export Plug-In . SVG Version: 2.1.0 Build 152)  -->
  <defs>
    <style>
      .st0 {
        fill: #f4f4f4;
      }

      .st1 {
        isolation: isolate;
      }

      .st2 {
        fill: #ffd435;
      }

      .st3 {
        fill: #fff;
      }
    </style>
  </defs>
  <g class="st1">
    <path d="M354.3,181.7c-.5,9.5-4.3,14.2-11.5,14.2h-11.5c-3.2,0-5.8-1.4-8.2-4.2-2.2-2.8-3.4-6.1-3.4-10v-35.7c0-3.8,1.2-7.2,3.4-10s5-4.2,8.2-4.2h11.5c7.2,0,11.1,4.7,11.5,14.2h-5.8c-.4-4.7-2.3-7.1-5.7-7.1h-5.8c-1.6,0-3,.7-4.1,2.1-1.2,1.4-1.7,3.1-1.7,5v35.7c0,1.9.5,3.6,1.7,5s2.5,2.1,4.1,2.1h5.8c3.4,0,5.3-2.4,5.7-7.1h5.8Z"/>
    <path d="M374,131.7h13.2c3.6,0,6.7,1.4,9.3,4.2s3.9,6.1,3.9,10v35.7c0,3.9-1.3,7.2-3.9,10-2.5,2.8-5.7,4.2-9.3,4.2h-13.2c-3.6,0-6.7-1.4-9.3-4.2-2.5-2.8-3.9-6.1-3.9-10v-35.7c0-3.9,1.3-7.2,3.9-10,2.5-2.8,5.7-4.2,9.3-4.2ZM374,146v35.7c0,1.9.6,3.6,1.9,5s2.9,2.1,4.7,2.1,3.4-.7,4.7-2.1,1.9-3.1,1.9-5v-35.7c0-1.9-.6-3.6-2-5-1.3-1.4-2.9-2.1-4.7-2.1s-3.4.7-4.7,2.1c-1.3,1.4-1.9,3.1-1.9,5h.1Z"/>
    <path d="M411.9,195.9v-64.1h14.1v57h21.2v7.1h-35.4.1Z"/>
    <path d="M452.3,195.9v-64.1h23.1c3.2,0,5.8,1.4,8.2,4.2s3.4,6.1,3.4,10v35.7c0,3.9-1.2,7.2-3.4,10s-5,4.2-8.2,4.2h-23.1ZM463.8,188.7h5.8c1.6,0,3-.7,4.1-2.1s1.7-3.1,1.7-5v-35.7c0-1.9-.5-3.6-1.7-5s-2.5-2.1-4-2.1h-5.8v49.8h-.1Z"/>
    <path d="M508.5,195.9v-64.1h3l27.5,30.4,27.5-30.4h6.5v64.1h-12.9v-39.2l-22.7,25-22.4-25v39.2h-6.5,0Z"/>
    <path d="M580.5,195.9v-64.1h32.7v7.1h-19.6v21.4h13.1v7.1h-13.1v21.4h19.6v7.1h-32.7Z"/>
    <path d="M618.3,195.9v-64.1h3.1l37.1,35.6v-35.6h6.7v64.1h-3.1l-37.1-35.6v35.6h-6.7Z"/>
    <path d="M672.4,195.9v-49.9c0-3.9,1.3-7.2,3.8-10,2.5-2.8,5.6-4.2,9.1-4.2h13c3.5,0,6.6,1.4,9.1,4.2s3.8,6.1,3.8,10v49.9h-12.9v-28.5h-13v28.5h-12.9,0ZM685.3,160.3h13v-14.3c0-1.9-.6-3.6-1.9-5s-2.9-2.1-4.6-2.1-3.3.7-4.6,2.1c-1.3,1.4-1.9,3.1-1.9,5v14.3h-.1Z"/>
    <path d="M757.4,181.7c-.5,9.5-4.3,14.2-11.5,14.2h-11.5c-3.2,0-5.8-1.4-8.2-4.2-2.2-2.8-3.4-6.1-3.4-10v-35.7c0-3.8,1.2-7.2,3.4-10,2.2-2.8,5-4.2,8.2-4.2h11.5c7.2,0,11.1,4.7,11.5,14.2h-5.8c-.4-4.7-2.3-7.1-5.7-7.1h-5.8c-1.6,0-3,.7-4.1,2.1-1.2,1.4-1.7,3.1-1.7,5v35.7c0,1.9.5,3.6,1.7,5s2.5,2.1,4.1,2.1h5.8c3.4,0,5.3-2.4,5.7-7.1h5.8Z"/>
    <path d="M764.2,195.9v-64.1h33.5v7.1h-20v21.4h13.4v7.1h-13.4v21.4h20v7.1h-33.5Z"/>
  </g>
  <g>
    <polygon points="68.4 136.2 27.2 237.3 35.5 237.3 97.5 136.2 68.4 136.2"/>
    <polygon points="292.8 237.3 319.7 237.3 263 124.2 223.4 124.2 292.8 237.3"/>
    <path d="M292.8,237.3l-69.4-113.1h-29.5l13.4-26.3-9.9-16.2h-66.5l-27.8,45.4,3.7,9h-9.2l-62.1,101.2h114.7c-5.3-2.6-10.4-5.1-12.3-6.1-5.1-2.5-23.3-11.4-31-15.1-8.6-4.1-8.5-4.1-13.5-10.7-4.9-6.5-7.9-10.5-8.9-11.7-1.1-1.4-1.1-1.5.2-.8,1.7,1,19,6.6,42.9,14.2,33.7,10.5,69.3,21.4,89.1,27.1,4.2,1.2,7.6,2.2,10.6,3.1h65.7-.2ZM236.1,164.5c.4-.6.8-1,1-1,.6,0,.8.9.5,1.4-.2.2-.4.7-.4,1s0,.3.7,0c.4-.3.8-.4.9-.3.5.4.3,1.8-.2,2-.3.1.2.7,1.2,1.7l1.7,1.4-1.2-.2c-1.1-.2-1.4,0-2.3,1-1.2,1.3-1.5,1.4-2.8.8l.2-.2c-1.1-.4-1-1,0-1s1.3-1,1.3-3.9-.2-1.7-.6-1.7-.5-.2,0-1h0ZM233.8,163.4c.7,0,.6.4.8.9.5.7.5.9,0,.9s-.7-.3-1.1-.7c-.6-.6-.5-1.1.2-1.1h.1ZM196,134.5c-.7-.2,1.9-.2,2.6-.4.5-.1.9,0,1.9.2.5,0,.7.1.8.2-.2-.6,1.5.3,1.3.3.2,0,1.1.3,1.5.6.1,0,.2-.1.4,0,.8.3,1.6,1.3,1.7,1,.6.9-.4-.4.8.6,1,.8.9,1.8,1.3,1.2.3-.5,1.1.5,1.6,1.4,0,0,.2,0,.3.2h.4c1.3-.3,4.1,2.9,3.1,2.9l.4,1c0,.3-.2.7-.5.8,1.8,1,.9,2.6-.4,2.8.4.5,0,.8-.2.9-.2.1-.5,2-.6,1.8,0-.2-.4.8-.6.9-.6.5-1.4.5-1.5-.2,0,.4-.3.4-.8,0-.5-.3-.7-.3-1,.2,0,0,0,.1-.1.2v.2c0,.3-1.5-1.2-1.8-1.2s-.1,0-.2,0c-.2,0-.5-.2-.7-.3h0c-.6-.5-.6-.2-.6-.5-.2.3-1-.2-1.2-.6-1,.1-2.7-.4-3.5-1.3h-.1c-.2,0-.3,0-.5-.1,0,.2-.1.1-.6-.2-.4-.3-1.5.1-2.2-.7h0c0,.1-.2,0-1.3-.6h-.2s-.3,0-.6-.1c-.5-.1-1-.3-1.3-.4-.2,0-.6.3-.8.9l-.4,1h2c3.3-.4,10.4,2,12.4,4,.5.4.9,1.4,1,2.2.2,1.5-.7,4.3-1.4,4.3s-.7.3-1.1.7c-1,1.1-2.5.9-4.1-.4h.7c-.9-1-1.3-1.5-1.3-2.3s-.2-1.1-.4-1.2c-.2,0-1.1.2-2.2.7-2.8,1.4-5.6.7-6.7-1.8-.3-.7-.7-1.2-.9-1.2-.7,0-.4-1.5.4-3.3.5-.9.7-1.7.6-1.8-.3-.3-.4,2-.8,1.5-.3.6-2.8,0-2.6-1.2,0-.8-.7-1.3-.6-1.7.2-.4-1.3-1.1-.3-2.1s0-1.7,1.2-2.5c1.2-1,.4-3.5,1.8-2.9-.3,0,1.1-2.2,1.3-2.3,1-.3,1.4-.2,3.2-.8.7-.2,2.3,0,1.6-.1l-.2-.5h0ZM190.5,156.6v-2.4c.2-.6.4-.4,1.2.3,2,1.7,3.7,1.8,7.3.4.7-.2.7-.1.6,1.3,0,1,.2,1.5.7,1.4.5,0,.8,0,.8.1s.4.6.9.8c1.3.6,1.2.9-.6,2-.8.6-2.3,1.5-3.4,2.3-2.1,1.4-2.3,1.5-3.7.8h0c-1.6-1-3.8-5-4-7.1h.2ZM123.7,125.7c.4.6,2.4.4,2.4-.2s-.3-.7-.6-.7c-.6-.2-.6-1.2,0-1.4.2,0,.8,0,1.4.4,1,.7,1.4.3,1.2-1,0-1.1.7-1,1.3,0,.7,1.2,1.5,1.3,2.1.2.7-1.3,1-1,1.1,1v3.1c0,1.8-.3,3-1,3.3-.4.2-2.1.4-3.7.6-2.6.2-3.1.1-3.3-.3h.2c-.3-.9.2-1.5.7-1s.3.2.3-.1c0-1-.7-1.9-1.8-2.4-.6-.2-1-.8-1.1-1.2,0-.8.5-1,.8-.3h0ZM108.7,199.6c-5.1-1.7-8.3-2.8-8.3-3.1,0-.6,3.3-2.5,5.1-3,1.7-.4,3.5.3,4.9,1.9l4,4c1.7,1.5,3,2.9,2.9,2.9s-3.9-1.2-8.5-2.7h0ZM118.8,202.7h0c-1.3-.4-4.1-3.7-4.4-4.8v-1.1c.5,0,4.8,4.2,5.2,5.1.7,1.2.6,1.3-.9.8h0ZM179.4,221.7c-.5,0-1.2-.1-1.6-.3h0c-.4-.2-6.1-2.1-12.5-4.2l-11.8-3.9,1.7-2c2-2.3,5.4-4.1,8-4.1s6.4,1.4,8.7,3.1c2.8,2,7.2,7.6,8.1,10.6.2.7,0,.8-.7.8h.1ZM186.3,223.4v.8l-2.3-.8h0c-1.5-.6-2.4-1.6-2.8-3-.7-2.1-2.3-5.5-3-5.9-.2-.1-.3-.8-.2-1.4.2-.9,0-1.4-.5-1.9-.9-1-2.5-1.7-3.7-1.7s-1.5-.2-2-.6l-.9-.4h1.1c5.6-.3,10,2.1,12.4,6.8,1.2,2.4,2.2,6.6,2,8.1h-.1ZM204.6,203c-1,1.8-1.1,2.2-.9,3.9l.2,1.9-3.5,4.5c-1.9,2.4-4.4,5.9-5.5,7.6-1.1,1.7-2.4,3.4-3,3.8-1.2.8-2.6,1.1-3.5.7h0c-.8-.3-1.3-1.9-1.6-5.1-.4-4.3-1.4-6.6-3.6-8.7-2.6-2.3-6.9-4.3-9.5-4.3s-2.4,0-3.2.2c-1.4.2-3-.1-3.3-.9,0-.3.2-1,.7-1.7,1.5-1.8,3.2-5.3,3.6-7.3.2-1,1.1-3,2.2-4.4,2.3-3.5,4.2-6.9,4.2-7.6s-.3-.9-.6-1.2c-.4-.5-.6-.4-.6.2,0,1.2-1.1,3.3-3.6,7-1.7,2.4-2.4,4-3.2,6.5-1.1,3.7-2.2,5.4-3.5,5.8-2.7.7-10.4-3.2-9.7-4.9,0-.2,2.2-1.8,4.7-3.3s4.5-3,4.5-3.2c0-.8-1.9-.2-4.1,1.2-7.3,4.8-10.2,6.4-10.6,6.4s-.5-.3-.2-1.4c.2-.8.3-1.5.2-1.5s-.9.8-1.8,1.9c-3.1,3.8-4.8,5.3-7.8,6.8s-3.1,1.7-3.4,1.9c-.9,1-3.1.6-11.8-2.7-5.6-2-5.6-2.1-6.4-3.5-.9-1.9-2.3-3.4-5.4-5.6-2.4-1.8-3.2-2.9-2-2.9s1.1-.4,1.7-.9c.7-.4,1.6-.9,2.1-.9,1.6,0,3.8-1.2,8.5-4.8,3.6-2.7,5.7-3.9,10.3-6.1,5.9-2.8,9.5-4.9,8.7-5.1-.3,0-1.3.2-2.3.8-1,.4-2,.9-2.2.9s1-1.2,2.5-2.7c1.5-1.4,4-4,5.5-5.6,3.1-3.2,4.3-3.9,7.5-3.9s2.7.2,5.2,1.4c2.5,1.1,3.6,1.9,5.9,4.3,3.2,3.3,5.1,4.6,12.5,9.4l1.4.9,1.3-1c1-.9,1.9-1.1,4.4-1.4,1.7-.2,4.5-.3,6.2-.3,4.8.2,4.9.3,9.1,9.5,3.1,6.8,4.5,10.7,4.5,12.3s-.5,2.1-1.1,3.3l.3-.2h0ZM213.8,175.7c-2.4.8-5.2,1.8-6.2,2.2-.9.4-2.3,1-3.2,1.2-2.2.7-2.3,1-.3.8l1.8-.2-.6.9c-.3.4-1.2,1.9-2,3.2-.7,1.3-1.5,2.3-1.6,2.3s-.4-.4-.7-1h0c-.3-.6-.7-1.7-.9-2.5-1-3.5-4.2-5.5-8.8-5.5s-8.8.7-9.8,1.5c-.6.4-1.1.8-1.2.8-.7,0-9.8-6.6-10.7-7.7-.7-.9-.8-1.4-.7-2.3,0-.7,0-1.9-.2-2.8l-.4-1.5.7.9c.4.4,1,1.4,1.3,2.2s.7,1.3.9,1.3c.3,0-.3-1.5-1.8-4.6-2.1-4.3-4.7-8-8-11.1-1.2-1.1-3.2-2.3-6.7-4.1-2.8-1.3-5.7-3-6.6-3.5-3-2.1-8.7-6.6-11.2-9-1.4-1.3-3.4-2.9-4.4-3.7-1.9-1.4-2.2-2.2-1.1-2.2s2-1.1,2-3.2.6-2.9,2.1-2.5c.9.2,5.1,3.8,7,6.1.7.7.8.9.7.4-.2-.4-.4-1-.3-1.1,0-.2,2.1,1,4.5,2.5,2.3,1.5,5.1,3.3,6,4,.9.6,2.9,2.4,4.4,4.1,2.7,3.1,3.6,3.5,2.4,1.5-.4-.6-.6-1.2-.5-1.2.4-.3,4.3,1.4,6.2,2.8,3.1,2.2,3.9,2.7,5.1,2.7s1.5.2,1.9.4c1.6,1,3.2,1.3,4.2.8.8-.4,1.2-.4,2.5,0,1.5.4,4.6,2.9,4.6,3.7s.3.3.7.3,1.3.3,2.1.7c1.1.6,1.6.6,2.2.2,1-.6,1.3,0,.6,1.3-1.1,2.2-.5,5.6,1.4,7.1.8.7,1.5,2,1.9,3.5.2.9.5,1.3.9,1.3,1.1,0,4.5-2.1,7.1-4.3,2.6-2.3,3.3-2.7,3.6-1.8.2.4.6.4,2,.3,1.5-.2,2,0,3.9,1.1,2.9,1.7,8,4.1,8.3,3.9,0,0-.2-.3-.7-.6-.5-.2-.7-.6-.7-.7,0-.4,4.5-1.2,7.9-1.2s3.3,0,4.4.8c.7.4,1.8.9,2.4.9s1.9.3,2.6.6l1.4.4-.3,2.1c0,1.1-.4,2.2-.5,2.3s-1.4.3-2.8.4c-5.9.3-9,.9-11.8,2.1-1.5.7-4.8,1.9-7.2,2.7h.2,0Z"/>
    <polygon class="st0" points="106.7 136.2 103 127.2 87.6 89.2 68.4 136.2 68.4 136.2 97.5 136.2 106.7 136.2"/>
    <polygon class="st0" points="223.4 124.2 263 124.2 263.6 124.2 228.8 55.9 207.3 98 193.9 124.2 223.4 124.2"/>
    <polygon class="st0" points="197.9 81.8 164.1 27.6 130.3 81.8 130.9 81.8 197.4 81.8 197.9 81.8"/>
    <path class="st3" d="M194.4,134.6c-1.8.6-2.2.4-3.2.8-.2.1-1.6,2.3-1.3,2.3-1.4-.7-.6,1.9-1.8,2.9-1.1.9-.2,1.5-1.2,2.5s.5,1.7.3,2.1c-.2.3.6.9.6,1.7-.2,1.2,2.3,1.8,2.6,1.2.5.4.6-1.9.8-1.5,0,.1,0,.9-.6,1.8-.7,1.8-1,3.3-.4,3.3s.7.6.9,1.2c1.1,2.4,3.9,3.2,6.7,1.8,1-.4,2-.7,2.2-.7.2.1.4.4.4,1.2s.4,1.3,1.3,2.2h-.7c1.6,1.4,3.1,1.7,4.1.6.4-.3.5-.7,1.1-.7s1.6-2.8,1.4-4.3c0-.8-.6-1.8-1-2.2-2-2-9.1-4.4-12.4-4h-2l.4-1c.3-.6.7-.9.8-.9.3.1.8.3,1.3.4.3.1.5.2.6.1h.2c1.1.6,1.3.7,1.3.6h0c.7.8,1.9.3,2.2.7.4.3.6.4.6.2.1.1.3.2.5.1h.1c.8.9,2.5,1.4,3.5,1.3.2.4,1,.9,1.2.6,0,.3,0,0,.6.5h0c.2.1.5.2.7.3h.2c.3,0,1.7,1.5,1.8,1.2v-.2s0-.1.1-.2c.4-.6.6-.6,1-.2.5.4.8.4.8,0,.2.7,1,.7,1.5.2.2-.1.6-1.1.6-.9s.4-1.7.6-1.8c.2-.1.5-.3.2-.9,1.3-.2,2.2-1.8.4-2.8.3-.1.5-.4.5-.8l-.4-1c1,0-1.8-3.2-3.1-2.9h-.4c-.1-.1-.3-.2-.3-.2-.4-.9-1.2-1.9-1.6-1.4-.4.6-.3-.4-1.3-1.2-1.2-1-.3.3-.8-.6,0,.3-.8-.7-1.7-1h-.4c-.4-.4-1.3-.6-1.5-.6.2,0-1.5-.8-1.3-.3-.1,0-.4-.1-.8-.2-.9-.2-1.4-.3-1.9-.2-.7.2-3.3.2-2.6.4.7.1-.8-.1-1.6.1l.2.4h0Z"/>
    <path class="st3" d="M236.1,165.5c.4,0,.6-1.2.6,1.7s-.3,3.9-1.3,3.9-1.1.6,0,1l-.2.2c1.3.7,1.6.6,2.8-.8.9-1,1.2-1.2,2.3-1l1.2.2-1.7-1.4c-1-1-1.5-1.5-1.2-1.7.5-.2.7-1.5.2-2,0-.1-.6,0-.9.3-.6.3-.7.3-.7,0s.2-.8.4-1c.4-.6,0-1.4-.5-1.4s-.7.4-1,1c-.5.8-.4,1,0,1h0Z"/>
    <path class="st3" d="M234.7,165.2c.4,0,.4-.2,0-.9-.3-.4-.2-.9-.8-.9s-.7.6-.2,1.1c.4.3.7.7,1.1.7h-.1Z"/>
    <path class="st3" d="M114.3,199.4c-1.7-1.7-3.5-3.4-4-4-1.4-1.5-3.2-2.3-4.9-1.9-1.8.4-5.1,2.4-5.1,3s3.2,1.4,8.3,3.1c4.6,1.4,8.4,2.7,8.5,2.7s-1.2-1.3-2.9-2.9h0Z"/>
    <path class="st3" d="M114.5,196.8v1.1c.3,1.1,3.1,4.3,4.4,4.8h0c1.5.6,1.6.4.9-.8-.5-.9-4.8-5.1-5.2-5.1h0Z"/>
    <path class="st2" d="M216.6,234.3c-19.8-5.8-55.4-16.6-89.1-27.1-23.9-7.5-41.2-13.2-42.9-14.2-1.3-.8-1.3-.7-.2.8,1,1.2,4,5.2,8.9,11.7,5,6.6,4.9,6.6,13.5,10.7,7.7,3.7,25.9,12.5,31,15.1,1.9,1,7,3.5,12.3,6.1,2.6,1.3,5.2,2.6,7.5,3.7,2.4,1.2,5.3,2.5,6.4,3.1,6.7,3.4,32.2,15.7,38.1,18.5,10.2,4.8,18.3,7.5,24,8.4h-.2c11.2,1.8,20-2.1,27-11.7,3.5-4.9,4.8-9.7,3.4-12.3-1.3-2.3-3.4-3.2-12.8-5.4-5.4-1.3-9.6-2.4-16.2-4.2-2.9-.8-6.4-1.8-10.6-3.1h-.1Z"/>
    <path class="st2" d="M235.6,170.5c0-.1.4-1.2.5-2.3l.3-2.1-1.4-.4c-.7-.2-2-.6-2.6-.6s-1.8-.4-2.4-.9c-1.1-.8-1.6-.8-4.4-.8s-7.9.8-7.9,1.2.3.4.7.7c.5.2.7.6.7.6-.3.2-5.4-2.2-8.3-3.9-2-1.1-2.4-1.3-3.9-1.1-1.4.1-1.8.1-2-.3-.4-.9-1-.6-3.6,1.8-2.6,2.2-6,4.3-7.1,4.3s-.7-.4-.9-1.3c-.4-1.5-1-2.9-1.9-3.5-1.9-1.4-2.5-4.9-1.4-7.1.7-1.3.5-1.9-.6-1.3-.6.3-1,.3-2.2-.2-.7-.3-1.7-.7-2.1-.7s-.7.4-.7-.3-3.1-3.2-4.6-3.7c-1.3-.4-1.7-.4-2.5,0-1,.6-2.6.2-4.2-.8-.4-.2-1.2-.4-1.9-.4-1.2,0-2.1-.4-5.1-2.7-1.9-1.3-5.8-3.1-6.2-2.8,0,0,0,.7.5,1.2,1.1,2,.3,1.5-2.4-1.5-1.5-1.7-3.5-3.5-4.4-4.1-.9-.7-3.6-2.4-6-4-2.4-1.5-4.5-2.8-4.5-2.5s0,.7.3,1.1c.2.4,0,.2-.7-.4-2-2.3-6.1-5.9-7-6.1-1.5-.3-2.1.4-2.1,2.5s-.8,3.2-2,3.2-.7.8,1.1,2.2c1,.8,3,2.3,4.4,3.7,2.5,2.3,8.2,6.9,11.2,9,.8.6,3.7,2.2,6.6,3.5,3.6,1.8,5.5,3,6.7,4.1,3.3,3.1,5.9,6.8,8,11.1,1.5,3.1,2.1,4.6,1.8,4.6s-.7-.6-.9-1.3c-.3-.8-.9-1.8-1.3-2.2l-.7-.9.4,1.5c.2.9.3,2.1.2,2.8-.2.9,0,1.4.7,2.3.8,1.1,10,7.7,10.7,7.7s.7-.3,1.2-.8c1-.9,5.2-1.5,9.8-1.5s7.8,2,8.8,5.5c.2.9.7,2,.9,2.5h0c.3.6.6,1,.7,1s.8-1,1.6-2.3c.7-1.3,1.7-2.8,2-3.2l.6-.9-1.8.2c-2.1.2-2-.1.3-.8.8-.2,2.2-.8,3.2-1.2.9-.4,3.7-1.4,6.2-2.2,2.4-.8,5.7-2,7.2-2.7,2.8-1.2,5.9-1.8,11.8-2.1,1.4-.1,2.7-.3,2.8-.4h-.2,0Z"/>
    <path class="st3" d="M192.2,177.9c-1.7,0-4.5.1-6.2.3-2.5.3-3.4.6-4.4,1.4l-1.3,1-1.4-.9c-7.5-4.8-9.4-6.1-12.5-9.4-2.3-2.4-3.4-3.2-5.9-4.3-2.5-1.2-2.1-1.4-5.2-1.4s-4.4.7-7.5,3.9c-1.5,1.7-4,4.2-5.5,5.6-1.5,1.4-2.7,2.7-2.5,2.7s1.1-.4,2.2-.9c1-.6,2.1-.8,2.3-.8.7.2-2.8,2.3-8.7,5.1-4.6,2.2-6.7,3.4-10.3,6.1-4.7,3.5-6.9,4.8-8.5,4.8s-1.4.4-2.1.9c-.6.4-.5.9-1.7.9s-.5,1.1,2,2.9c3.1,2.2,4.5,3.8,5.4,5.6.7,1.4.7,1.5,6.4,3.5,8.7,3.2,10.9,3.7,11.8,2.7.3-.2,1.8-1.1,3.4-1.9,3-1.4,4.7-3,7.8-6.8.8-1.1,1.7-1.9,1.8-1.9s0,.8-.2,1.5c-.3,1.1-.2,1.4.2,1.4s3.3-1.7,10.6-6.4c2.2-1.4,4.1-2,4.1-1.2s-2,1.7-4.5,3.2c-2.4,1.5-4.6,3.1-4.7,3.3-.7,1.7,7,5.5,9.7,4.9,1.3-.3,2.3-2.1,3.5-5.8.7-2.5,1.5-4.1,3.2-6.5,2.5-3.7,3.6-5.8,3.6-7s0-.9.6-.2c.3.3.6.4.6,1.2s-1.9,4.1-4.2,7.6c-1,1.4-2,3.4-2.2,4.4-.5,2-2.2,5.5-3.6,7.3-.6.7-.8,1.3-.7,1.7.3.8,1.9,1.1,3.3.9.7-.2,2.2-.2,3.2-.2,2.5,0,6.8,2,9.5,4.3,2.2,2.1,3.3,4.4,3.6,8.7.3,3.2.7,4.8,1.6,5.2h0c.8.3,2.2,0,3.5-.8.6-.3,1.9-2.1,3-3.8,1.1-1.8,3.6-5.2,5.5-7.6l3.5-4.5-.2-1.9c-.2-1.7,0-2.1.9-3.9.7-1.2,1.1-1.8,1.1-3.3s-1.4-5.5-4.5-12.3c-4.2-9.2-4.3-9.3-9.1-9.5l-.3.2h0Z"/>
    <path class="st3" d="M198.2,162.9c1-.8,2.5-1.8,3.4-2.3,1.8-1.1,1.9-1.4.6-2-.6-.2-.9-.7-.9-.8s-.4-.1-.8-.1c-.7.1-.8.1-.7-1.4,0-1.4,0-1.5-.6-1.3-3.6,1.3-5.3,1.2-7.3-.4-.8-.8-1-.9-1.2-.3v2.4c.2,2.1,2.4,6.1,4,7h0c1.4.9,1.7.8,3.7-.7h-.2Z"/>
    <path class="st3" d="M123.9,127.3c1.1.6,1.8,1.4,1.8,2.4s0,.4-.3.1c-.5-.6-.9.1-.7.9h-.2c.2.6.7.7,3.3.4,1.7-.1,3.4-.3,3.7-.6.7-.3,1-1.5,1-3.3v-3.1c0-2-.5-2.3-1.1-1-.6,1.1-1.3,1-2.1-.2-.7-1.1-1.4-1.2-1.3,0,.2,1.3-.2,1.7-1.2,1-.6-.3-1.2-.4-1.4-.4-.6.2-.6,1.2,0,1.4.3,0,.6,0,.6.7s-2.1.8-2.4.2c-.4-.7-.8-.4-.8.3s.6,1,1.1,1.2h0Z"/>
    <path class="st3" d="M171.9,208.5h-1.1l.9.4c.5.3,1.4.6,2,.6,1.2,0,2.8.7,3.7,1.7.5.4.7,1,.5,1.9,0,.7,0,1.3.2,1.4.7.3,2.3,3.8,3,5.9.4,1.4,1.3,2.4,2.8,2.9h0c0,.1,2.2.9,2.3.9v-.8c.3-1.4-.7-5.6-2-8.1-2.3-4.6-6.7-7.1-12.4-6.8h.1Z"/>
    <path class="st3" d="M171.9,210.3c-2.3-1.7-6.4-3.1-8.7-3.1s-6.1,1.8-8,4.1l-1.7,2,11.8,3.9c6.5,2.1,12.2,4,12.5,4.2h0c.4.2,1.1.3,1.6.3s.8-.1.7-.8c-.9-3-5.3-8.6-8.1-10.6h-.1Z"/>
    <g>
      <polygon class="st0" points="156.8 81.8 132.8 82.1 132.4 82.1 153.7 96.8 166.6 87.5 174.6 81.6 156.8 81.8"/>
      <polygon class="st0" points="236.5 121.1 212.5 121.4 212.1 121.4 233.4 136.2 246.3 126.8 254.4 120.9 236.5 121.1"/>
      <polygon class="st0" points="92.6 131.6 80.7 131.7 80.5 131.7 91.2 143.6 97.5 136.2 101.5 131.5 92.6 131.6"/>
    </g>
  </g>
</svg>