<?xml version="1.0" encoding="UTF-8"?>
<svg id="Layer_1" xmlns="http://www.w3.org/2000/svg" version="1.1" viewBox="0 0 850.4 290">
  <!-- Generator: Adobe Illustrator 29.4.0, SVG Export Plug-In . SVG Version: 2.1.0 Build 152)  -->
  <defs>
    <style>
      .st0 {
        fill: none;
      }

      .st1 {
        fill: #f4f4f4;
      }

      .st1, .st2 {
        stroke: #000;
        stroke-miterlimit: 10;
        stroke-width: .2px;
      }

      .st3, .st2 {
        fill: #ffd435;
      }

      .st4 {
        fill: #fff;
      }
    </style>
  </defs>
  <g>
    <g>
      <path d="M263,124.2h-69.1l13.4-26.3-9.9-16.2h-66.5l-27.8,45.4,3.7,9h-9.2l-62.1,101.2h114.7c-5.3-2.6-10.4-5.1-12.3-6.1-5.1-2.5-23.3-11.4-31-15.1-8.6-4.1-8.5-4.1-13.5-10.7-4.9-6.5-7.9-10.5-8.9-11.7-1.1-1.4-1.1-1.5.2-.8,1.7,1,19,6.6,42.9,14.2,33.7,10.5,69.3,21.4,89.1,27.1,4.2,1.2,7.6,2.2,10.6,3.1h92.4l-56.7-113.1h0ZM234.6,165.2c-.5,0-.7-.3-1.1-.7-.6-.6-.5-1.1.2-1.1h0c.7,0,.6.4.8.9.5.7.5.9,0,.9h.1ZM187.1,143.6c1-1,0-1.7,1.2-2.5,1.2-1,.4-3.5,1.8-2.9-.3,0,1.1-2.2,1.3-2.3,1-.3,1.4-.2,3.2-.8.7-.2,2.3,0,1.6-.1l-.2-.5h0c-.7-.2,1.9-.2,2.6-.4.5,0,.9,0,1.9.2.5,0,.7.1.8.2-.2-.6,1.5.3,1.3.3.2,0,1.1.3,1.5.6,0,0,.2-.1.4,0,.8.3,1.6,1.3,1.7,1,.1.2.2.3.2.3,0,0-.1-.3.6.3,1,.8.9,1.8,1.3,1.2.3-.5,1.1.5,1.6,1.4,0,0,.2,0,.3.2h.4c1.3-.3,4.1,2.9,3.1,2.9l.4,1c0,.3-.2.7-.5.8,1.8,1,.9,2.6-.4,2.8.4.5,0,.8-.2.9-.2,0-.5,2-.6,1.8,0-.2-.4.8-.6.9-.6.5-1.4.5-1.5-.2,0,.4-.3.4-.8,0-.5-.3-.7-.3-1,.2v.4c0,.3-1.5-1.2-1.8-1.2h-.2c-.2,0-.5-.2-.7-.3-.6-.5-.6-.2-.6-.5-.2.3-1-.2-1.2-.6-1,.1-2.7-.4-3.5-1.3h-.6c0,.2,0,0-.6-.2-.4-.3-1.5,0-2.2-.7,0,.1-.2,0-1.3-.6h-.2s-.3,0-.6-.1c-.5,0-1-.3-1.3-.4-.2,0-.6.3-.8.9l-.4,1h2c3.3-.4,10.4,2,12.4,4,.5.4.9,1.4,1,2.2.2,1.5-.7,4.3-1.4,4.3s-.7.3-1.1.7c-.7.8-1.6.9-2.6.5.5.4.1.8-1.3,1.6-.8.6-2.3,1.5-3.4,2.3-2.1,1.4-2.3,1.5-3.7.8-1.6-1-3.8-5-4-7.1h.2v-2.3c.2-.6.4-.4,1.2.3.8.6,1.5,1.1,2.3,1.2-1.2-.3-2.1-1.1-2.7-2.3-.3-.7-.7-1.2-.9-1.2-.7,0-.4-1.5.4-3.3.5-.9.7-1.7.6-1.8-.3-.3-.4,2-.8,1.5-.3.6-2.8,0-2.6-1.2,0-.8-.7-1.3-.6-1.7.2-.4-1.3-1.1-.3-2.1h0ZM123.7,125.7c.4.6,2.4.4,2.4-.2s-.3-.7-.6-.7c-.6-.2-.6-1.2,0-1.4.2,0,.8,0,1.4.4,1,.7,1.4.3,1.2-1,0-1.1.7-1,1.3,0,.7,1.2,1.5,1.3,2.1.2.7-1.3,1-1,1.1,1v3.1c0,1.8-.3,3-1,3.3-.4.2-2.1.4-3.7.6-2.6.2-3.1,0-3.3-.3h.2c-.3-.9.2-1.5.7-1s.3.2.3-.1c0-1-.7-1.9-1.8-2.4-.6-.2-1-.8-1.1-1.2,0-.8.5-1,.8-.3h0ZM108.8,199.6h0c-5.1-1.7-8.3-2.8-8.3-3.1,0-.6,3.3-2.5,5.1-3,1.7-.4,3.5.3,4.9,1.9l4,4c1.7,1.5,3,2.9,2.9,2.9s-3.9-1.2-8.5-2.7h0ZM118.7,202.7h0c-1.3-.4-4.1-3.7-4.4-4.8v-1.1c.5,0,4.8,4.2,5.2,5.1.7,1.2.6,1.3-.9.8h.1ZM179.3,221.7c-.5,0-1.2-.1-1.5-.3-.4-.2-6.1-2.1-12.5-4.2l-11.8-3.9,1.7-2c2-2.3,5.4-4.1,8-4.1s6.4,1.4,8.7,3.1c2.8,2,7.2,7.6,8.1,10.6.2.7,0,.8-.7.8h0ZM186.4,223.4h-.1v.8l-2.3-.8c-1.5-.6-2.4-1.6-2.8-3-.7-2.1-2.3-5.5-3-5.9-.2-.1-.3-.8-.2-1.4.2-.9,0-1.4-.5-1.9-.9-1-2.5-1.7-3.7-1.7s-1.5-.2-2-.6l-.9-.4h1.1c5.6-.3,10,2.1,12.4,6.8,1.2,2.4,2.2,6.6,2,8.1h0ZM204.6,203h0c-1,1.8-1.1,2.2-.9,3.9l.2,1.9-3.5,4.5c-1.9,2.4-4.4,5.9-5.5,7.6-1.1,1.7-2.4,3.4-3,3.8-1.2.8-2.6,1.1-3.5.7-.8-.3-1.3-1.9-1.6-5.1-.4-4.3-1.4-6.6-3.6-8.7-2.6-2.3-6.9-4.3-9.5-4.3s-2.4,0-3.2.2c-1.4.2-3-.1-3.3-.9,0-.3.2-1,.7-1.7,1.5-1.8,3.2-5.3,3.6-7.3s1.1-3,2.2-4.4c2.3-3.5,4.2-6.9,4.2-7.6s-.3-.9-.6-1.2c-.4-.5-.6-.4-.6.2,0,1.2-1.1,3.3-3.6,7-1.7,2.4-2.4,4-3.2,6.5-1.1,3.7-2.2,5.4-3.5,5.8-2.7.7-10.4-3.2-9.7-4.9,0-.2,2.2-1.8,4.7-3.3s4.5-3,4.5-3.2c0-.8-1.9-.2-4.1,1.2-7.3,4.8-10.2,6.4-10.6,6.4s-.5-.3-.2-1.4c.2-.8.3-1.5.2-1.5s-.9.8-1.8,1.9c-3.1,3.8-4.8,5.3-7.8,6.8s-3.1,1.7-3.4,1.9c-.9,1-3.1.6-11.8-2.7-5.6-2-5.6-2.1-6.4-3.5-.9-1.9-2.3-3.4-5.4-5.6-2.4-1.8-3.2-2.9-2-2.9s1.1-.4,1.7-.9c.7-.4,1.6-.9,2.1-.9,1.6,0,3.8-1.2,8.5-4.8,3.6-2.7,5.7-3.9,10.3-6.1,5.9-2.8,9.5-4.9,8.7-5.1-.3,0-1.3.2-2.3.8-1,.4-2,.9-2.2.9s1-1.2,2.5-2.7c1.5-1.4,4-4,5.5-5.6,3.1-3.2,4.3-3.9,7.5-3.9s2.7.2,5.2,1.4c2.5,1.1,3.6,1.9,5.9,4.3,3.2,3.3,5.1,4.6,12.5,9.4l1.4.9,1.3-1c1-.9,1.9-1.1,4.4-1.4,1.7-.2,4.5-.3,6.2-.3,4.8.2,4.9.3,9.1,9.5,3.1,6.8,4.5,10.7,4.5,12.3s-.5,2.1-1.1,3.3l.3-.2h0ZM220.8,173c-1.5.7-4.8,1.9-7.2,2.7h.2c-2.4.8-5.2,1.8-6.2,2.2-.9.4-2.3,1-3.2,1.2-2.2.7-2.3,1-.3.8l1.8-.2-.6.9c-.3.4-1.2,1.9-2,3.2-.7,1.3-1.5,2.3-1.6,2.3s-.4-.4-.7-1-.7-1.7-.9-2.5c-1-3.5-4.2-5.5-8.8-5.5s-8.8.7-9.8,1.5c-.6.4-1.1.8-1.2.8-.7,0-9.8-6.6-10.7-7.7-.7-.9-.8-1.4-.7-2.3,0-.7,0-1.9-.2-2.8l-.4-1.5.7.9c.4.4,1,1.4,1.3,2.2s.7,1.3.9,1.3c.3,0-.3-1.5-1.8-4.6-2.1-4.3-4.7-8-8-11.1-1.2-1.1-3.2-2.3-6.7-4.1-2.8-1.3-5.7-3-6.6-3.5-3-2.1-8.7-6.6-11.2-9-1.4-1.3-3.4-2.9-4.4-3.7-1.9-1.4-2.2-2.2-1.1-2.2s2-1.1,2-3.2.6-2.9,2.1-2.5c.9.2,5.1,3.8,7,6.1.7.7.8.9.7.4-.2-.4-.4-1-.3-1.1,0-.2,2.1,1,4.5,2.5,2.3,1.5,5.1,3.3,6,4,.9.6,2.9,2.4,4.4,4.1,2.7,3.1,3.6,3.5,2.4,1.5-.4-.6-.6-1.2-.5-1.2.4-.3,4.3,1.4,6.2,2.8,3.1,2.2,3.9,2.7,5.1,2.7s1.5.2,1.9.4c1.6,1,3.2,1.3,4.2.8s1.2-.4,2.5,0c1.5.4,4.6,2.9,4.6,3.7s.3.3.7.3,1.3.3,2.1.7c1.1.6,1.6.6,2.2.2,1-.6,1.3,0,.6,1.3-1.1,2.2-.5,5.6,1.4,7.1.8.7,1.5,2,1.9,3.5.2.9.5,1.3.9,1.3,1.1,0,4.5-2.1,7.1-4.3,2.6-2.3,3.3-2.7,3.6-1.8.2.4.6.4,2,.3,1.5-.2,2,0,3.9,1.1,2.9,1.7,8,4.1,8.3,3.9,0,0-.2-.3-.7-.6-.5-.2-.7-.6-.7-.7,0-.4,4.5-1.2,7.9-1.2s3.3,0,4.4.8c.7.4,1.8.9,2.4.9s1.9.3,2.6.6l1.4.4-.3,2.1c0,1.1-.4,2.2-.5,2.3s-1.4.3-2.8.4c-5.9.3-9,.9-11.8,2.1h0ZM240.3,170.5c-1.1-.2-1.4,0-2.3,1-1.2,1.3-1.5,1.4-2.8.8l.2-.2c-1.1-.4-1-1,0-1s1.3-1,1.3-3.9-.2-1.7-.6-1.7-.5-.2,0-1h0c.4-.6.8-1,1-1,.6,0,.8.9.5,1.4-.2.2-.4.7-.4,1s0,.3.7,0c.4-.3.8-.4.9-.3.5.4.3,1.8-.2,2-.3.1.2.7,1.2,1.7l1.7,1.4-1.2-.2h0Z"/>
      <polygon points="68.4 136.2 27.2 237.3 35.5 237.3 97.5 136.2 68.4 136.2"/>
      <path d="M199.6,156.2c0,1,.2,1.5.7,1.4.5,0,.8,0,.8.1s0,.2.2.3h.6c-.9-1-1.3-1.5-1.3-2.3s-.2-1.1-.4-1.2c-.2,0-1.1.2-2.2.7-.2.1-.4.2-.6.3.5-.1,1-.3,1.6-.6.7-.2.7-.1.6,1.3h0Z"/>
      <path d="M197.4,155.5c-1.4.4-2.4.5-3.4.3,1,.3,2.2.2,3.4-.3Z"/>
      <path d="M201.3,158h-.1c.5.4,1,.7,1.5.9-.1-.1-.4-.2-.7-.4-.3-.1-.5-.3-.7-.5Z"/>
      <path d="M206.4,136.7h0Z"/>
    </g>
    <path class="st4" d="M194.4,134.6c-1.8.6-2.2.4-3.2.8-.2.1-1.6,2.3-1.3,2.3-1.4-.7-.6,1.9-1.8,2.9-1.1.9-.2,1.5-1.2,2.5s.5,1.7.3,2.1c-.2.3.6.9.6,1.7-.2,1.2,2.3,1.8,2.6,1.2.5.4.6-1.9.8-1.5,0,.1,0,.9-.6,1.8-.7,1.8-1,3.3-.4,3.3s.7.6.9,1.2c1.1,2.4,3.9,3.2,6.7,1.8,1-.4,2-.7,2.2-.7.2.1.4.4.4,1.2s.4,1.3,1.3,2.2h-.7c1.6,1.4,3.1,1.7,4.1.6.4-.3.5-.7,1.1-.7s1.6-2.8,1.4-4.3c0-.8-.6-1.8-1-2.2-2-2-9.1-4.4-12.4-4h-2l.4-1c.3-.6.7-.9.8-.9.3.1.8.3,1.3.4.3.1.5.2.6.1h.2c1.1.6,1.3.7,1.3.6h0c.7.8,1.9.3,2.2.7.4.3.6.4.6.2.1.1.3.2.5.1h.1c.8.9,2.5,1.4,3.5,1.3.2.4,1,.9,1.2.6,0,.3,0,0,.6.5h0c.2.1.5.2.7.3h.2c.3,0,1.7,1.5,1.8,1.2v-.2s0-.1.1-.2c.4-.6.6-.6,1-.2.5.4.8.4.8,0,.2.7,1,.7,1.5.2.2-.1.6-1.1.6-.9s.4-1.7.6-1.8c.2-.1.5-.3.2-.9,1.3-.2,2.2-1.8.4-2.8.3-.1.5-.4.5-.8l-.4-1c1,0-1.8-3.2-3.1-2.9h-.4c-.1-.1-.3-.2-.3-.2-.4-.9-1.2-1.9-1.6-1.4-.4.6-.3-.4-1.3-1.2-1.2-1-.3.3-.8-.6,0,.3-.8-.7-1.7-1h-.4c-.4-.4-1.3-.6-1.5-.6.2,0-1.5-.8-1.3-.3-.1,0-.4-.1-.8-.2-.9-.2-1.4-.3-1.9-.2-.7.2-3.3.2-2.6.4.7.1-.8-.1-1.6.1l.2.4h0Z"/>
    <path class="st4" d="M236.1,165.5c.4,0,.6-1.2.6,1.7s-.3,3.9-1.3,3.9-1.1.6,0,1l-.2.2c1.3.7,1.6.6,2.8-.8.9-1,1.2-1.2,2.3-1l1.2.2-1.7-1.4c-1-1-1.5-1.5-1.2-1.7.5-.2.7-1.5.2-2,0-.1-.6,0-.9.3-.6.3-.7.3-.7,0s.2-.8.4-1c.4-.6,0-1.4-.5-1.4s-.7.4-1,1c-.5.8-.4,1,0,1h0Z"/>
    <path class="st4" d="M234.7,165.2c.4,0,.4-.2,0-.9-.3-.4-.2-.9-.8-.9s-.7.6-.2,1.1c.4.3.7.7,1.1.7h-.1Z"/>
    <path class="st4" d="M114.3,199.4c-1.7-1.7-3.5-3.4-4-4-1.4-1.5-3.2-2.3-4.9-1.9-1.8.4-5.1,2.4-5.1,3s3.2,1.4,8.3,3.1c4.6,1.4,8.4,2.7,8.5,2.7s-1.2-1.3-2.9-2.9h0Z"/>
    <path class="st4" d="M114.5,196.8v1.1c.3,1.1,3.1,4.3,4.4,4.8h0c1.5.6,1.6.4.9-.8-.5-.9-4.8-5.1-5.2-5.1h-.1Z"/>
    <path class="st2" d="M216.6,234.3c-19.8-5.8-55.4-16.6-89.1-27.1-23.9-7.5-41.2-13.2-42.9-14.2-1.3-.8-1.3-.7-.2.8,1,1.2,4,5.2,8.9,11.7,5,6.6,4.9,6.6,13.5,10.7,7.7,3.7,25.9,12.5,31,15.1,1.9,1,7,3.5,12.3,6.1,2.6,1.3,5.2,2.6,7.5,3.7,2.4,1.2,5.3,2.5,6.4,3.1,6.7,3.4,32.2,15.7,38.1,18.5,10.2,4.8,18.3,7.5,24,8.4h-.2c11.2,1.8,20-2.1,27-11.7,3.5-4.9,4.8-9.7,3.4-12.3-1.3-2.3-3.4-3.2-12.8-5.4-5.4-1.3-9.6-2.4-16.2-4.2-2.9-.8-6.4-1.8-10.6-3.1h-.1Z"/>
    <path class="st3" d="M235.6,170.5c0-.1.4-1.2.5-2.3l.3-2.1-1.4-.4c-.7-.2-2-.6-2.6-.6s-1.8-.4-2.4-.9c-1.1-.8-1.6-.8-4.4-.8s-7.9.8-7.9,1.2.3.4.7.7c.5.2.7.6.7.6-.3.2-5.4-2.2-8.3-3.9-2-1.1-2.4-1.3-3.9-1.1-1.4.1-1.8.1-2-.3-.4-.9-1-.6-3.6,1.8-2.6,2.2-6,4.3-7.1,4.3s-.7-.4-.9-1.3c-.4-1.5-1-2.9-1.9-3.5-1.9-1.4-2.5-4.9-1.4-7.1.7-1.3.5-1.9-.6-1.3-.6.3-1,.3-2.2-.2-.7-.3-1.7-.7-2.1-.7s-.7.4-.7-.3-3.1-3.2-4.6-3.7c-1.3-.4-1.7-.4-2.5,0-1,.6-2.6.2-4.2-.8-.4-.2-1.2-.4-1.9-.4-1.2,0-2.1-.4-5.1-2.7-1.9-1.3-5.8-3.1-6.2-2.8,0,0,0,.7.5,1.2,1.1,2,.3,1.5-2.4-1.5-1.5-1.7-3.5-3.5-4.4-4.1-.9-.7-3.6-2.4-6-4-2.4-1.5-4.5-2.8-4.5-2.5s0,.7.3,1.1c.2.4,0,.2-.7-.4-2-2.3-6.1-5.9-7-6.1-1.5-.3-2.1.4-2.1,2.5s-.8,3.2-2,3.2-.7.8,1.1,2.2c1,.8,3,2.3,4.4,3.7,2.5,2.3,8.2,6.9,11.2,9,.8.6,3.7,2.2,6.6,3.5,3.6,1.8,5.5,3,6.7,4.1,3.3,3.1,5.9,6.8,8,11.1,1.5,3.1,2.1,4.6,1.8,4.6s-.7-.6-.9-1.3c-.3-.8-.9-1.8-1.3-2.2l-.7-.9.4,1.5c.2.9.3,2.1.2,2.8-.2.9,0,1.4.7,2.3.8,1.1,10,7.7,10.7,7.7s.7-.3,1.2-.8c1-.9,5.2-1.5,9.8-1.5s7.8,2,8.8,5.5c.2.9.7,2,.9,2.5h0c.3.6.6,1,.7,1s.8-1,1.6-2.3c.7-1.3,1.7-2.8,2-3.2l.6-.9-1.8.2c-2.1.2-2-.1.3-.8.8-.2,2.2-.8,3.2-1.2.9-.4,3.7-1.4,6.2-2.2,2.4-.8,5.7-2,7.2-2.7,2.8-1.2,5.9-1.8,11.8-2.1,1.4-.1,2.7-.3,2.8-.4h-.2Z"/>
    <path class="st4" d="M192.2,177.9c-1.7,0-4.5.1-6.2.3-2.5.3-3.4.6-4.4,1.4l-1.3,1-1.4-.9c-7.5-4.8-9.4-6.1-12.5-9.4-2.3-2.4-3.4-3.2-5.9-4.3-2.5-1.2-2.1-1.4-5.2-1.4s-4.4.7-7.5,3.9c-1.5,1.7-4,4.2-5.5,5.6-1.5,1.4-2.7,2.7-2.5,2.7s1.1-.4,2.2-.9c1-.6,2.1-.8,2.3-.8.7.2-2.8,2.3-8.7,5.1-4.6,2.2-6.7,3.4-10.3,6.1-4.7,3.5-6.9,4.8-8.5,4.8s-1.4.4-2.1.9c-.6.4-.5.9-1.7.9s-.5,1.1,2,2.9c3.1,2.2,4.5,3.8,5.4,5.6s.7,1.5,6.4,3.5c8.7,3.2,10.9,3.7,11.8,2.7.3-.2,1.8-1.1,3.4-1.9,3-1.4,4.7-3,7.8-6.8.8-1.1,1.7-1.9,1.8-1.9s0,.8-.2,1.5c-.3,1.1-.2,1.4.2,1.4s3.3-1.7,10.6-6.4c2.2-1.4,4.1-2,4.1-1.2s-2,1.7-4.5,3.2c-2.4,1.5-4.6,3.1-4.7,3.3-.7,1.7,7,5.5,9.7,4.9,1.3-.3,2.3-2.1,3.5-5.8.7-2.5,1.5-4.1,3.2-6.5,2.5-3.7,3.6-5.8,3.6-7s0-.9.6-.2c.3.3.6.4.6,1.2s-1.9,4.1-4.2,7.6c-1,1.4-2,3.4-2.2,4.4-.5,2-2.2,5.5-3.6,7.3-.6.7-.8,1.3-.7,1.7.3.8,1.9,1.1,3.3.9.7-.2,2.2-.2,3.2-.2,2.5,0,6.8,2,9.5,4.3,2.2,2.1,3.3,4.4,3.6,8.7.3,3.2.7,4.8,1.6,5.2h0c.8.3,2.2,0,3.5-.8.6-.3,1.9-2.1,3-3.8,1.1-1.8,3.6-5.2,5.5-7.6l3.5-4.5-.2-1.9c-.2-1.7,0-2.1.9-3.9.7-1.2,1.1-1.8,1.1-3.3s-1.4-5.5-4.5-12.3c-4.2-9.2-4.3-9.3-9.1-9.5l-.3.2h0Z"/>
    <path class="st4" d="M198.2,162.9c1-.8,2.5-1.8,3.4-2.3,1.8-1.1,1.9-1.4.6-2-.6-.2-.9-.7-.9-.8s-.4-.1-.8-.1c-.7.1-.8.1-.7-1.4,0-1.4,0-1.5-.6-1.3-3.6,1.3-5.3,1.2-7.3-.4-.8-.8-1-.9-1.2-.3v2.4c.2,2.1,2.4,6.1,4,7h0c1.4.9,1.7.8,3.7-.7h-.2Z"/>
    <path class="st4" d="M123.9,127.3c1.1.6,1.8,1.4,1.8,2.4s0,.4-.3.1c-.5-.6-.9.1-.7.9h-.2c.2.6.7.7,3.3.4,1.7-.1,3.4-.3,3.7-.6.7-.3,1-1.5,1-3.3v-3.1c0-2-.5-2.3-1.1-1-.6,1.1-1.3,1-2.1-.2-.7-1.1-1.4-1.2-1.3,0,.2,1.3-.2,1.7-1.2,1-.6-.3-1.2-.4-1.4-.4-.6.2-.6,1.2,0,1.4.3,0,.6,0,.6.7s-2.1.8-2.4.2c-.4-.7-.8-.4-.8.3s.6,1,1.1,1.2h0Z"/>
    <path class="st4" d="M171.9,208.5h-1.1l.9.4c.5.3,1.4.6,2,.6,1.2,0,2.8.7,3.7,1.7.5.4.7,1,.5,1.9,0,.7,0,1.3.2,1.4.7.3,2.3,3.8,3,5.9.4,1.4,1.3,2.4,2.8,2.9h0c0,.1,2.2.9,2.3.9v-.8c.3-1.4-.7-5.6-2-8.1-2.3-4.6-6.7-7.1-12.4-6.8h.1Z"/>
    <path class="st4" d="M171.9,210.3c-2.3-1.7-6.4-3.1-8.7-3.1s-6.1,1.8-8,4.1l-1.7,2,11.8,3.9c6.5,2.1,12.2,4,12.5,4.2h0c.4.2,1.1.3,1.6.3s.8-.1.7-.8c-.9-3-5.3-8.6-8.1-10.6h-.1Z"/>
    <g>
      <polygon class="st1" points="87.6 89.2 68.4 136.2 83.3 136.2 89.4 143 95.2 136.2 97.5 136.2 106.7 136.2 103 127.2 87.6 89.2"/>
      <polygon class="st1" points="197.4 81.8 164.2 27.6 131.3 81.5 131 81.5 130.6 81.5 151.9 96.2 164.8 86.9 171.7 81.8 196.9 81.8 197.4 81.8"/>
      <polygon class="st1" points="228.8 55.9 207.3 98 193.9 124.2 215.2 124.2 231.6 135.6 244.5 126.2 247.2 124.2 263 124.2 263.6 124.2 228.8 55.9"/>
    </g>
  </g>
  <g>
    <path class="st0" d="M489.9,139.9c0-1.9-.6-3.6-2-5-1.4-1.4-2.9-2.1-4.7-2.1h-1.8v43.2h-.1c0,0,6.8,0,6.8,0,.6,0,1.2,0,1.7-.2,0,0,0-.1,0-.2v-35.7Z"/>
    <path class="st0" d="M396.4,140c0-1.9-.6-3.6-2-5-1.3-1.4-3-2.1-4.8-2.1s-1.4.1-2.1.3c0,0,0,0,0,.1h0v35.7c0,1.9.6,3.6,2,5s3,2.1,4.8,2.1,1.4-.1,2-.3c0,0,0,0,0-.1v-35.7Z"/>
    <polygon class="st0" points="627.5 132.9 613.3 132.9 613.3 147.7 626.8 147.7 626.8 154.8 620.8 154.8 620.8 161.4 613.3 161.4 613.3 176.2 632.7 176.2 632.7 126.3 627.5 126.3 627.5 132.9"/>
    <path class="st0" d="M712.6,135c-1.3-1.4-3-2.1-4.7-2.1s-.2,0-.3,0c0,.1,0,.3,0,.4v14.3h7v-7.7c0-1.9-.6-3.6-1.9-5Z"/>
    <path class="st0" d="M352.9,126.3h-.1c2.5.6,4.6,1.6,6.2,3.3-1.2-2.1-3.2-3.3-6-3.3Z"/>
    <path d="M338.7,183.3c-4,0-7.3-1.4-10.2-4.2-2.8-2.8-4.2-6.1-4.2-10v-35.7c0-1.6.3-3.2.8-4.6-.5.4-1,.8-1.4,1.3-2.8,2.8-4.3,6.2-4.3,10v35.7c0,3.9,1.5,7.2,4.3,10,3,2.8,6.3,4.2,10.3,4.2h14.4c7.2,0,11.7-3,13.5-9-2.3,1.6-5.2,2.4-8.9,2.4h-14.3Z"/>
    <path d="M355.5,175.7s0,0,0,0c0,0,.1,0,.2,0h-.2Z"/>
    <path d="M358.9,129.5c-1.6-1.6-3.6-2.7-6.2-3.3h-7.1c-1.9,0-3.8.7-5.1,2.1-1.5,1.4-2.1,3.1-2.1,5h0c.8-.3,1.7-.5,2.6-.5h7.3c4.3,0,6.6,2.4,7.1,7.1h7.3c-.1-2.6-.6-4.8-1.4-6.7h-1.4c-.2-1.5-.5-2.8-1.1-3.8Z"/>
    <path d="M387.6,183.2c-3.7,0-6.9-1.4-9.6-4.2-2.6-2.8-4-6.1-4-10v-35.7c0-1.6.2-3.2.7-4.6-.4.4-.9.8-1.3,1.2-2.7,2.8-4,6.1-4,10v35.7c0,3.9,1.4,7.2,4,10,2.7,2.8,5.8,4.2,9.5,4.2h13.5c3.7,0,7-1.4,9.5-4.2,1.5-1.5,2.5-3.2,3.2-5.1-2.3,1.8-5,2.7-7.9,2.7h-13.6Z"/>
    <path d="M394.3,126.3c-1.8,0-3.5.7-4.8,2.1-1.3,1.4-2,3-2,4.9.7-.2,1.3-.3,2.1-.3,1.8,0,3.5.7,4.8,2.1,1.4,1.4,2,3.1,2,5v35.7s0,0,0,.1c1-.3,2-.9,2.8-1.8,1.3-1.4,2-3.1,2-5v-35.7c0-1.9-.6-3.6-2.1-5-1.3-1.4-3-2.1-4.8-2.1Z"/>
    <polygon points="457.3 183.3 426.5 183.3 426.5 125.8 421.7 125.8 421.7 189.9 457.8 189.9 457.8 182.8 457.3 182.8 457.3 183.3"/>
    <path d="M468,183.3v-57.5h-5v64.1h26.9c3.7,0,7-1.4,9.6-4.2,1.4-1.5,2.4-3.2,3.1-5-2.2,1.7-4.8,2.6-7.7,2.6h-26.8Z"/>
    <path d="M488.3,126.2h-6.8v6.7h1.8c1.7,0,3.3.7,4.7,2.1,1.4,1.4,2,3.1,2,5v35.7c0,0,0,.1,0,.2,1.1-.3,2.2-.9,3-1.9,1.2-1.4,1.9-3.1,1.9-5v-35.7c0-1.9-.6-3.6-1.9-5-1.4-1.4-2.9-2.1-4.6-2.1Z"/>
    <polygon points="525.8 183.3 525.8 128.3 523.5 125.8 520.4 125.8 520.4 189.9 527.1 189.9 527.1 183.3 525.9 183.3 525.8 183.3"/>
    <polygon points="578.9 144.1 555.6 169.1 532.6 144.1 532.6 156.8 550 175.7 573.2 150.7 573.2 189.9 586.4 189.9 586.4 183.3 578.9 183.3 578.9 144.1"/>
    <rect x="613.3" y="126.3" width="14.2" height="6.6"/>
    <rect x="613.3" y="154.8" width="7.5" height="6.6"/>
    <polygon points="599.8 125.8 594.1 125.8 594.1 189.9 627.5 189.9 627.5 183.3 599.8 183.3 599.8 125.8"/>
    <polygon points="645.5 159.9 677.5 189.9 680.7 189.9 680.7 180.5 645.5 147.7 645.5 159.9"/>
    <polygon points="638.6 128.4 635.9 125.8 633.4 125.8 633.4 126.3 632.7 126.3 632.7 176.2 633.4 176.2 633.4 183.3 632.7 183.3 632.7 189.9 639.6 189.9 639.6 183.3 638.6 183.3 638.6 128.4"/>
    <polygon points="679.9 125.8 673.8 125.8 673.8 149.1 679.9 154.8 679.9 125.8"/>
    <path d="M694.2,183.3v-49.9c0-2.3.4-4.3,1.3-6.2-1.3.7-2.5,1.6-3.6,2.8-2.6,2.8-3.9,6.1-3.9,10v49.9h13.2v-6.6h-7Z"/>
    <polygon points="720.9 154.8 707.5 154.8 707.5 161.4 714.5 161.4 714.5 189.9 727.7 189.9 727.7 183.3 720.9 183.3 720.9 154.8"/>
    <path d="M714.2,126.3c-1.7,0-3.4.7-4.7,2.1-1.2,1.3-1.9,2.8-2,4.6.1,0,.2,0,.3,0,1.7,0,3.4.7,4.7,2.1,1.3,1.4,1.9,3.1,1.9,5v7.7h6.4v-14.3c0-1.9-.6-3.6-2-5-1.4-1.4-3-2.1-4.7-2.1Z"/>
    <path d="M754.8,183.3c-3.7,0-6.8-1.4-9.5-4.2-2.6-2.8-4-6.1-4-10v-35.7c0-.3,0-.5,0-.8-1.2,2.2-1.8,4.7-1.8,7.5v35.7c0,3.9,1.2,7.2,3.5,10,2.5,2.8,5.1,4.2,8.4,4.2h11.8c5.4,0,8.9-2.5,10.6-7.5-1.6.6-3.4.9-5.5.9h-13.4Z"/>
    <path d="M756.5,128.4c-1.4,1.4-1.9,3.1-1.9,5v.3c.8-.5,1.7-.7,2.6-.7h5.9c3.5,0,5.4,2.4,5.8,7.1h5.9c-.3-7.8-3.1-12.4-8.2-13.8h-5.4c-1.8,0-3.5.7-4.8,2.1Z"/>
    <path d="M769,175.7c0,.1,0,.3,0,.4.7,0,1.3-.2,1.8-.4h-1.8Z"/>
    <polygon points="788.6 125.8 781.9 125.8 781.9 189.9 816.1 189.9 816.1 183.3 788.6 183.3 788.6 125.8"/>
    <rect x="802.4" y="126.3" width="13.7" height="6.6"/>
    <rect x="802.4" y="154.8" width="7" height="6.6"/>
    <path class="st3" d="M353,119.2h-14.3c-4,0-7.4,1.4-10.2,4.2-1.6,1.6-2.7,3.4-3.4,5.4-.5,1.5-.8,3-.8,4.6v35.7c0,3.9,1.5,7.2,4.2,10,2.9,2.8,6.2,4.2,10.2,4.2h14.3c3.7,0,6.6-.8,8.9-2.4,3.3-2.3,5.1-6.2,5.4-11.8h-7.3c-.5,3.5-1.9,5.8-4.3,6.7,0,0-.1,0-.2,0-.8.3-1.6.4-2.6.4h-7.3c-1.9,0-3.6-.7-5.1-2.1-1.5-1.4-2.1-3.1-2.1-5v-35.7h0c0-1.9.6-3.6,2.1-5,1.3-1.4,3.1-2.1,5.1-2.1h7.3c2.9,0,4.9,1.1,6,3.3.6,1,1,2.3,1.1,3.8h7.3c-.5-9.5-5.3-14.2-14.3-14.2Z"/>
    <path class="st3" d="M401.2,119.1h-13.6c-3.7,0-7,1.4-9.6,4.2-1.6,1.6-2.7,3.4-3.3,5.4-.5,1.4-.7,2.9-.7,4.6v35.7c0,3.9,1.4,7.2,4,10,2.7,2.8,5.9,4.2,9.6,4.2h13.6c2.9,0,5.6-.9,7.9-2.7.6-.5,1.2-1,1.7-1.5,2.7-2.8,4-6.1,4-10v-35.7c0-3.9-1.3-7.2-4-10s-5.9-4.2-9.6-4.2ZM401.2,169.1c0,1.9-.7,3.6-2,5-.8.9-1.8,1.5-2.8,1.8-.6.2-1.3.3-2,.3-1.8,0-3.4-.7-4.8-2.1s-2-3.1-2-5v-35.7h0s0,0,0-.1c0-1.8.7-3.5,2-4.9,1.3-1.4,3-2.1,4.8-2.1s3.5.7,4.8,2.1c1.5,1.4,2.1,3.1,2.1,5v35.7Z"/>
    <polygon class="st3" points="457.3 183.3 457.3 182.8 457.3 176.2 438.8 176.2 438.8 119.2 426.5 119.2 426.5 125.8 426.5 183.3 457.3 183.3"/>
    <path class="st3" d="M494.8,119.2h-26.8v64.1h26.8c2.9,0,5.5-.9,7.7-2.6.6-.5,1.2-1,1.8-1.6,2.6-2.8,4-6.1,4-10v-35.7c0-3.9-1.2-7.2-4-10-2.7-2.8-5.8-4.2-9.5-4.2ZM494.8,169c0,1.9-.7,3.6-1.9,5-.8.9-1.9,1.6-3,1.9-.6.1-1.1.2-1.7.2h-6.8c0,0,.1,0,.1,0v-49.8h6.8c1.7,0,3.3.7,4.6,2.1,1.4,1.4,1.9,3.1,1.9,5v35.7Z"/>
    <polygon class="st3" points="557.2 149.6 528.9 119.2 525.8 119.2 525.8 128.3 525.8 183.3 525.9 183.3 527.1 183.3 532.6 183.3 532.6 156.8 532.6 144.1 555.6 169.1 578.9 144.1 578.9 183.3 586.4 183.3 592.2 183.3 592.2 119.2 585.5 119.2 557.2 149.6"/>
    <polygon class="st3" points="633.4 176.2 632.7 176.2 613.3 176.2 613.3 161.4 613.3 154.8 620.8 154.8 626.8 154.8 626.8 147.7 613.3 147.7 613.3 132.9 613.3 126.3 627.5 126.3 632.7 126.3 633.4 126.3 633.4 125.8 633.4 119.2 599.8 119.2 599.8 125.8 599.8 183.3 627.5 183.3 632.7 183.3 633.4 183.3 633.4 176.2"/>
    <polygon class="st3" points="679.9 125.8 679.9 154.8 673.8 149.1 641.8 119.2 638.6 119.2 638.6 128.4 638.6 183.3 639.6 183.3 645.5 183.3 645.5 159.9 645.5 147.7 680.7 180.5 683.6 183.3 686.8 183.3 686.8 119.2 679.9 119.2 679.9 125.8"/>
    <path class="st3" d="M720.9,119.2h-13.4c-3.6,0-6.8,1.4-9.4,4.2-1.1,1.2-1.9,2.5-2.6,3.8-.9,1.9-1.3,3.9-1.3,6.2v49.9h13.3v-28.5h13.4v28.5h13.3v-49.9c0-3.9-1.3-7.2-3.9-10-2.6-2.8-5.8-4.2-9.4-4.2ZM720.9,147.7h-13.4v-14.3c0-.1,0-.3,0-.4,0-1.7.8-3.3,2-4.6,1.3-1.4,3-2.1,4.7-2.1s3.3.7,4.7,2.1c1.4,1.4,2,3.1,2,5v14.3Z"/>
    <path class="st3" d="M774.8,133.4h6.8c-.5-9.5-5-14.2-13.4-14.2h-13.4c-3.7,0-6.9,1.4-9.5,4.2-2.4,2.6-3.8,5.7-3.9,9.2,0,.3,0,.5,0,.8v35.7c0,3.9,1.4,7.2,4,10,2.7,2.8,5.8,4.2,9.5,4.2h13.4c2.1,0,3.9-.3,5.5-.9,4.8-1.8,7.5-6.2,7.9-13.3h-6.8c-.4,3.5-1.7,5.8-4.1,6.7-.5.2-1.2.3-1.8.4-.3,0-.5,0-.8,0h-6.8c-1.8,0-3.4-.7-4.8-2.1-1.4-1.4-1.9-3.1-1.9-5v-35.7c0-1.9.6-3.6,1.9-5,1.2-1.4,3-2.1,4.8-2.1h6.8c4,0,6.2,2.4,6.7,7.1Z"/>
    <polygon class="st3" points="802.4 126.3 816.1 126.3 823 126.3 823 119.2 788.6 119.2 788.6 125.8 788.6 183.3 816.1 183.3 823 183.3 823 176.2 802.4 176.2 802.4 161.4 802.4 154.8 809.4 154.8 816.2 154.8 816.2 147.7 802.4 147.7 802.4 132.9 802.4 126.3"/>
  </g>
</svg>