<?xml version="1.0" encoding="utf-8"?>
<!-- Generator: Adobe Illustrator 29.5.0, SVG Export Plug-In . SVG Version: 9.03 Build 0)  -->
<svg version="1.0"
	 id="svg3060" xmlns:inkscape="http://www.inkscape.org/namespaces/inkscape" xmlns:rdf="http://www.w3.org/1999/02/22-rdf-syntax-ns#" xmlns:sodipodi="http://sodipodi.sourceforge.net/DTD/sodipodi-0.dtd" xmlns:cc="http://creativecommons.org/ns#" xmlns:dc="http://purl.org/dc/elements/1.1/" xmlns:svg="http://www.w3.org/2000/svg"
	 xmlns="http://www.w3.org/2000/svg" xmlns:xlink="http://www.w3.org/1999/xlink" x="0px" y="0px" viewBox="0 0 400 350"
	 style="enable-background:new 0 0 400 350;" xml:space="preserve">
<style type="text/css">
	.st0{fill:#A8CFEF;stroke:#000000;stroke-width:0.75;stroke-miterlimit:10;}
	.st1{fill:#D6E7E1;stroke:#000000;stroke-linejoin:bevel;}
	.st2{font-family:'Krungthep';}
	.st3{font-size:24px;}
	.st4{fill:#E21B4D;stroke:#000000;stroke-width:0.75;stroke-miterlimit:10;}
</style>
<g>
	<rect y="-0.1" class="st0" width="400" height="350"/>
	<g>
		
			<sodipodi:namedview  bordercolor="#666666" borderopacity="1.0" fit-margin-bottom="0" fit-margin-left="0" fit-margin-right="0" fit-margin-top="0" gridtolerance="10.0" guidetolerance="10.0" id="namedview3064" inkscape:current-layer="svg3060" inkscape:cx="40.47568" inkscape:cy="20.514634" inkscape:guide-bbox="true" inkscape:pageopacity="0.0" inkscape:pageshadow="2" inkscape:window-height="746" inkscape:window-maximized="0" inkscape:window-width="1366" inkscape:window-x="-8" inkscape:window-y="-8" inkscape:zoom="7.3693741" objecttolerance="10.0" pagecolor="#ffffff" showgrid="false" showguides="true">
			</sodipodi:namedview>
		<path id="Philadelphia" inkscape:connector-curvature="0" class="st1" d="M366.7,246.4l-3.7,5.4l-4.4,8.1l-2.3,3.2l-5.7-7.5
			l2.8-3.7l-3.1-2.3l3.3-5l3.3,2.2l6-6.5L366.7,246.4"/>
		<path id="Bucks" inkscape:connector-curvature="0" class="st1" d="M345,208.4l8.3,3.3l4.4,8.7l5.6,3.4l0.4,0.2l15.7,11.8
			l-12.7,10.6l-3.8-6.2L331.1,225l6.6-10.7l6.6-7.1L345,208.4"/>
		<path id="Greene" inkscape:connector-curvature="0" class="st1" d="M46.2,314.2l12-6.4l0.7-0.1l6.5,0l11,0l8.2,19.1L55,331.6
			l-5.8,0.9L46.2,314.2"/>
		<path id="Fayette" inkscape:connector-curvature="0" class="st1" d="M81.5,295.6l7.7-1.4l13.8-3.3l1.4-0.4l1.5,0.4l0.6,0.3
			l10.2,5.2l-1.5,3.9l-2.7,7.7l-0.5,3.7l2,8.9l1.3,0.8l-4.9,0.9l-16.8,2.9l-8.9,1.5l-8.2-19.1L81.5,295.6"/>
		<path id="Washington" inkscape:connector-curvature="0" class="st1" d="M48.8,273.7L61,283l13.7,5.6l6.3,1.6l0.5,5.4l-5.1,12
			l-11,0l-6.5,0l-0.7,0.1l-12,6.4l-2.5-14.9l-3-18.1l-1-5.9L48.8,273.7"/>
		<path id="Allegheny" inkscape:connector-curvature="0" class="st1" d="M84.9,252.7L84.9,252.7l2.4,17.2l0.2,1.2l-0.1,0.4
			l-3.1,15.4l-0.5,1.4l-2.9,1.9l-6.3-1.6L61,283l-12.2-9.3l6.4-8.5l4.3-3.9l-1-4.6L84.9,252.7"/>
		<path id="Beaver" inkscape:connector-curvature="0" class="st1" d="M34.9,246.9l20.7-3.7l2.9,13.6l1,4.6l-4.3,3.9l-6.4,8.5
			l-9.1,1.5L37.6,263L34.9,246.9"/>
		<path id="Lawrence" inkscape:connector-curvature="0" class="st1" d="M56.4,226.4l-0.8,16.8l-20.7,3.7l-0.7-3.7l-2.8-17.1
			l14.9-2.6l6.5,0L56.4,226.4"/>
		<path id="Butler" inkscape:connector-curvature="0" class="st1" d="M78.4,214.8l6.6,37.9l-26.4,4l-2.9-13.6l0.8-16.8l4.2-8.7
			l17.5-3L78.4,214.8"/>
		<path id="Armstrong" inkscape:connector-curvature="0" class="st1" d="M107.2,219.2l1.9,10.5L111,240l-6.9,14.3l-3.3,6.6L85,252.8
			l0,0l-6.6-37.9l1.5,5.1l0.2,0.7l1.4,3.1l6.3,3.9l1.2,0.2l1.7,0.1l1.1-0.3l4.2-1.5l6.2-2.5L107.2,219.2"/>
		<path id="Clarion" inkscape:connector-curvature="0" class="st1" d="M87.7,196.4l4.4-0.8l-0.7-3.7l2.4-0.4l8.7-1.1l1.2,7.5
			l3.5,21.3l-5.1,4.5l-6.2,2.5l-4.2,1.5l-1.1,0.3l-1.7-0.1l-1.2-0.2l-6.3-3.9l-1.4-3.1l-0.2-0.7l-1.5-5.1l-0.3-0.1l1.5-6.5l1-2
			l1.1-1.6l2.6-2.4l0.6-0.1l3.4-1.7L87.7,196.4"/>
		<path id="Forest" inkscape:connector-curvature="0" class="st1" d="M82.5,178.8l31.7-5.5l1.7,10.3l-0.5,2.9l-5,0.8l-1.3,2.6
			l1.1,6.2l-6.4,1.8l-1.2-7.5l-8.7,1.1l-2.4,0.4l0.7,3.7l-4.4,0.8l-0.8-4.1l-2.8-4.7L82.5,178.8"/>
		<path id="Venango" inkscape:connector-curvature="0" class="st1" d="M82.5,178.8l1.7,8.9l2.8,4.7l0.8,4.1l0.6,3.8l-3.4,1.7
			l-0.6,0.1l-2.6,2.4l-1.1,1.6l-1,2l-1.5,6.5l-17.5,3l-4.2-24.1l2.1-2.2l6.2-7.9l12.1-3.2l-0.1-0.5L82.5,178.8"/>
		<path id="Mercer" inkscape:connector-curvature="0" class="st1" d="M26.8,198.6l29.6-5l4.2,24.1l-4.2,8.7l-3.5-2.9l-6.5,0
			l-14.9,2.6l-0.1-0.6L26.8,198.6"/>
		<path id="Crawford" inkscape:connector-curvature="0" class="st1" d="M73.7,162.7l3,17.1l0.1,0.5l-12.1,3.2l-6.2,7.9l-2.1,2.2
			l-29.6,5l-0.1-0.8l-4.4-26.5l34.6-5.8l12.9-2.3L73.7,162.7"/>
		<path id="Erie" inkscape:connector-curvature="0" class="st1" d="M71.9,151.4l1.9,11.3l-4,0.5l-12.9,2.3l-34.6,5.8l-1.6-9.7
			l10-6.2l13.2-10.7l10.4-8.4l5.5-3.9l0.3,2l1.5,8.4l1.8,10l7.7-1.3L71.9,151.4"/>
		<path id="Westmoreland" inkscape:connector-curvature="0" class="st1" d="M100.8,260.9l-0.4,1l0.8,2.5l0.1,0.1l3.9,1.5l14.3,0.9
			l10.6-0.7l-3.1,9.2l-10.4,20.9l-10.2-5.2l-0.6-0.3l-1.5-0.4l-1.4,0.4l-13.8,3.3l-7.7,1.4l-0.5-5.4l2.9-1.9l0.5-1.4l3.1-15.4
			l0.1-0.4l-0.2-1.2L85,252.8L100.8,260.9"/>
		<path id="Indiana" inkscape:connector-curvature="0" class="st1" d="M109.2,229.7l23.6-3.8l2.7,13.7l-5.4,26.6l-10.6,0.7
			l-14.3-0.9l-3.9-1.5l-0.1-0.1l-0.8-2.5l0.4-1l3.3-6.6L111,240L109.2,229.7"/>
		<path id="Jefferson" inkscape:connector-curvature="0" class="st1" d="M103.7,197.9l6.4-1.8l1.1-1.2l6.3-1.8l14.2,5.2l1.9,2.2
			l0.4,2.2l-3.2,0.5l-1,4.7l0,0.2l0.1,2.2l2.9,15.7l-23.6,3.8l-1.9-10.5L103.7,197.9"/>
		<path id="Warren" inkscape:connector-curvature="0" class="st1" d="M102.9,146l8.1-1.3l0.8,3.4l1.5,8.5l-0.2,0.8l-1.6,0.3
			l2.5,15.7l-31.7,5.5l-5.7,1l-3-17.1l-1.9-11.3L102.9,146"/>
		<path id="McKean" inkscape:connector-curvature="0" class="st1" d="M145.5,138.3l5.7-1.1L157,166l-12,3.5l-4-1.4l-7.7,1.5l-3,0.8
			l-8.8,1.8l-7.3,1.2l-2.5-15.7l1.6-0.3l0.2-0.8l-1.5-8.5l-0.8-3.4l2.5-0.4l15.7-3L145.5,138.3"/>
		<path id="Cameron" inkscape:connector-curvature="0" class="st1" d="M144.9,169.4l12-3.5l14.3,8.5l-2.1,20.6l-8.4,0.5l-1.2-7
			l-2.3-5.9l-9.5,1.7L144.9,169.4"/>
		<path id="Elk" inkscape:connector-curvature="0" class="st1" d="M114.1,173.3l7.3-1.2l8.8-1.8l3-0.8l7.7-1.5l4,1.4l2.8,14.9
			l9.5-1.7l2.3,5.9l1.2,7l-18.5,2l-5.1,1l-3,4.1l-0.4-2.2l-1.9-2.2l-14.2-5.2l-6.3,1.8l-1.1,1.2l-1.1-6.2l1.3-2.6l5-0.8l0.5-2.9
			L114.1,173.3"/>
		<path id="Clearfield" inkscape:connector-curvature="0" class="st1" d="M160.7,195.5l8.4-0.5l4.1,4.2l0.6,9l0.1,1.8l-0.7,4.7
			l-0.3,0.3l-3.3,1.3l-2.8,2.4l-0.7,0.7l-6.5,13.3l0.1,0.2l1,1.2l0.8,0.5l-26,4.7l-2.7-13.7l-2.9-15.7l-0.1-2.2l0-0.2l1-4.7l3.2-0.5
			l3-4.1l5.1-1L160.7,195.5"/>
		<path id="Blair" inkscape:connector-curvature="0" class="st1" d="M160.7,234.4l14.1-3.1l-4.3,4l-0.6,1.1l-0.2,0.9l3.2,8.4
			l3.2,2.1l1.7,2.5l0.1,0.5l-0.1,0.7l-0.7,2.8l-3.8,11.7l-0.4,2.1l-0.6,2.2l-9.4-0.6l-11-2l9.9-32.9L160.7,234.4"/>
		<path id="Cambria" inkscape:connector-curvature="0" class="st1" d="M135.5,239.6l26-4.7l-9.9,32.9l-1,6.7l-5.3,1l-7.6,1.1
			l-1.2-1.6l-2-0.8l-7.5,1.3l3.1-9.2L135.5,239.6"/>
		<path id="Somerset" inkscape:connector-curvature="0" class="st1" d="M150.6,274.5l-2.3,14l2.4,18.8l-0.2,2.2l-1.4,5.9l-34.1,6.1
			l-1.3-0.8l-2-8.9l0.5-3.7l2.7-7.7l1.5-3.9l10.4-20.9l7.5-1.3l2,0.8l1.2,1.6l7.6-1.1L150.6,274.5"/>
		<path id="Bedford" inkscape:connector-curvature="0" class="st1" d="M151.7,267.7l11,2l9.4,0.6l0.6-2.2l0.4-2.1l9,8.7l-0.8,3.5
			l-1.9,11.2l-2,12.7l-1.6,5.1l-1.6,3.6l-25,4.5l1.4-5.9l0.2-2.2l-2.4-18.8l2.3-14L151.7,267.7"/>
		<path id="Fulton" inkscape:connector-curvature="0" class="st1" d="M182.1,274.8l3.8,1.8l9.2,0.7l4.2,2.4l-0.6,0.6l-0.3,0.6
			l-1.4,3.8l-0.2,4.3l-1.3,7.3l-0.7,2.7l-2.6,6.3l-1.4,2.5l-14.2,2.6l-2.2,0.4l1.6-3.6l1.6-5.1l2-12.7l1.9-11.2L182.1,274.8"/>
		<path id="Huntingdon" inkscape:connector-curvature="0" class="st1" d="M174.8,231.3l10.6,1.7l13.1-4.3l1.5-1.5l-0.4,1.8l-3.3,7.1
			l-1.7,3.2l-0.7,1.9l-0.4,1.4l-1.8,11.1l3.1,2.6l0.6,0.4l1.5-0.2l3.8-1.1l0.4-0.9l4.5,8.1l-6.3,17l-4.2-2.4l-9.2-0.7l-3.8-1.8
			l-9-8.7l3.8-11.7l0.7-2.8l0.1-0.7l-0.1-0.5l-1.7-2.5l-3.2-2.1l-3.2-8.4l0.2-0.9l0.6-1.1L174.8,231.3"/>
		<path id="Franklin" inkscape:connector-curvature="0" class="st1" d="M205.7,262.6l1.4-2.3l4.7,6.2l-0.6,1l1.6,2.5l8.8,9.9
			l2.3,4.3l4.1,16.8l-0.6,0.1l-36.7,6.8l1.4-2.5l2.6-6.3l0.7-2.7l1.3-7.3l0.2-4.3l1.4-3.8l0.3-0.6l0.6-0.6L205.7,262.6"/>
		<path id="Mifflin" inkscape:connector-curvature="0" class="st1" d="M216.4,214.9l1,2.9l5.7,7.8l-3.2,2.2l-1.8,1.4l-3.5,3
			l-1.9,1.8l-5.4,8.8l-6,11.7l-0.4,0.9l-3.8,1.1l-1.5,0.2l-0.6-0.4l-3.1-2.6l1.8-11.1l0.4-1.4l0.7-1.9l1.7-3.2l3.3-7.1l0.4-1.8
			L216.4,214.9"/>
		<path id="Potter" inkscape:connector-curvature="0" class="st1" d="M184.9,130.9l7.4,34.3l1.1,4.8l-22.2,4.5L157,166l-5.7-28.7
			l25.8-4.8L184.9,130.9"/>
		<path id="Clinton" inkscape:connector-curvature="0" class="st1" d="M193.4,170l0.6,2.8l4,3.8l6.9,6l19.4,13.4l1.1-0.2l0.4,1.9
			l-10.4,6.4l-9.2,3.8l-5.3-5.6l-0.9-1.7l-2.2-1.1l-19.9-5.5l-4.9,5.3l-4.1-4.2l2.1-20.6L193.4,170"/>
		<path id="Centre" inkscape:connector-curvature="0" class="st1" d="M173.2,199.2l4.9-5.3l19.9,5.5l2.2,1.1l0.9,1.7l5.3,5.6
			l9.2-3.8l10.4-6.4l-2.7,4.6l-2.9,6.9l-4,5.8l-16.5,12.4l-1.5,1.5l-13.1,4.3l-10.6-1.7l-14.1,3.1l-1-1.2l-0.1-0.2l6.5-13.3l0.7-0.7
			l2.8-2.4l3.3-1.3l0.3-0.3l0.7-4.7l-0.1-1.8L173.2,199.2"/>
		<path id="Union" inkscape:connector-curvature="0" class="st1" d="M225.5,195.8l9.2-3.3l0.1-4.8l3.8,0l1.4,3.3l2.1,8.3l-0.1,1
			l0.7,1.4l1.9,2.5l1.9,1.4l1.5,0.4l-1.9-0.1l-6.2,1.2l-7.5,3.1l-12.7,6.3l-2.3,1.4l-1-2.9l4-5.8l2.9-6.9l2.7-4.6L225.5,195.8"/>
		<path id="Montour" inkscape:connector-curvature="0" class="st1" d="M247.4,183.3l5.5,0.2l2.7,5.7l3,1.1l4.5,6.4l0.5,1l0.1,5
			l-6-4.2l-1.2-0.7h-1.7l-4,1.9l-3.2,1.3l-0.1-0.2l0.6-7.9L247.4,183.3"/>
		<path id="Tioga" inkscape:connector-curvature="0" class="st1" d="M223.4,123.2l9.3,29.9l-0.3,0.6l-3.9,3.7l-13.1,3l-23.1,4.7
			l-7.4-34.3l36.3-7.2L223.4,123.2"/>
		<path id="Lycoming" inkscape:connector-curvature="0" class="st1" d="M232.7,153.1l3.6-0.2l6.4,13.1l10.6,5.9l2.7,0.3l6,0.1
			l-9.1,11.3l-5.5-0.2l-8.8,4.4l-3.8,0l-0.1,4.8l-9.2,3.3l-1.1,0.2L205,182.6l-6.9-6l-4-3.8l-0.6-2.8l-1.1-4.8l23.1-4.7l13.1-3
			l3.9-3.7L232.7,153.1"/>
		<path id="Wyoming" inkscape:connector-curvature="0" class="st1" d="M274.7,140.1l0.2,0.6l13.9-3l8.4-1.6l-0.4,0.6l-1.5,5.1
			l-0.7,4.2l2,1l-2.3,6.6l-0.8,0.6l-8.4,4.7l-15.4,3.8l0.9-13.1L274.7,140.1"/>
		<path id="Sullivan" inkscape:connector-curvature="0" class="st1" d="M236.2,152.8l34.4-3.2l-0.9,13.1l-0.5,5.5l-7.2,4.1l-6-0.1
			l-2.7-0.3l-10.6-5.9L236.2,152.8"/>
		<path id="Columbia" inkscape:connector-curvature="0" class="st1" d="M269.2,168.2l0.8,6.1l0.4,1.8l3.5,5l6.9,12.9l-1.8,3
			l-1.5,2.8l0,6.4l-3.7,2.8l-10.2-6.3l-0.1-5l-0.5-1l-4.5-6.4l-3-1.1l-2.7-5.7l9.1-11.3L269.2,168.2"/>
		<path id="Northumberland" inkscape:connector-curvature="0" class="st1" d="M238.6,187.7l8.8-4.4l0.5,9.6l-0.6,7.9l0.1,0.2
			l3.2-1.3l4-1.9h1.7l1.2,0.7l6,4.2l10.2,6.3l-16.6,12.6l-2.4,0.7l-6.7,4.4l-2.7,1l-0.3,0.1l-0.7-0.2l-0.9-1l0.4-0.9l0.5-0.5
			l2.2-3.8l0.4-1l0.3-1l0.1-1.3l-0.5-2l0.6-6.7l0.6-3.5l-1.5-0.4l-1.9-1.4l-1.9-2.5l-0.7-1.4l0.1-1L240,191L238.6,187.7"/>
		<path id="Snyder" inkscape:connector-curvature="0" class="st1" d="M248.1,205.9l-0.6,3.5l-0.6,6.7l0.5,2l-0.1,1.3l-0.3,1l-0.4,1
			l-2.2,3.8l-0.5,0.5l-0.2-0.6l-0.3-0.3l-6-1l-4.1-0.2l-2.3,1.3l-8.1,0.5l-5.7-7.8l2.3-1.4l12.7-6.3l7.5-3.1l6.2-1.2L248.1,205.9"/>
		<path id="Juniata" inkscape:connector-curvature="0" class="st1" d="M244,225.8l-0.4,0.9l-11.7,7.4l-6.2,4.7l-8.3,7.5l-4.4,4.3
			l-5,7.8l-1,1.9l-1.4,2.3l-4.5-8.1l6-11.7l5.4-8.8l1.9-1.8l3.5-3l1.8-1.4l3.2-2.2l8.1-0.5l2.3-1.3l4.1,0.2l6,1l0.3,0.3L244,225.8"
			/>
		<path id="Perry" inkscape:connector-curvature="0" class="st1" d="M250.3,248.8L247,251l-2.6,1l-21.2,7.8l-10.7,7.7l-0.7-1
			l-4.7-6.2l1-1.9l5-7.8l4.4-4.3l8.3-7.5l6.2-4.7l11.7-7.4l-0.5,3.5l-0.4,15.4l0.1,0.3l0.8,1.4l0.9,0.4L250.3,248.8"/>
		<path id="Cumberland" inkscape:connector-curvature="0" class="st1" d="M250.3,248.8l4.8,7.1l-2.6,3.5l-7.1,5.9l-4,5.6l-1.5,2.2
			l-2.1,1.9l-4.1,1.6l-6.7,3l-3.2,4.5l-2.3-4.3l-8.8-9.9l-1.6-2.5l0.6-1l0.7,1l10.7-7.7l21.2-7.8l2.6-1L250.3,248.8"/>
		<path id="Adams" inkscape:connector-curvature="0" class="st1" d="M241.4,270.9l0.7,0.1l2.2,0.6l4.8,2.2l4.3,5.3l0.3,1.1l0.4,3.6
			l-1,3.4v0.3l1.7,8.1l-12.6,2.5l-14.1,2.7l-4.1-16.8l3.2-4.5l6.7-3l4.1-1.6l2.1-1.9L241.4,270.9"/>
		<path id="York" inkscape:connector-curvature="0" class="st1" d="M255.1,255.9l9.6,6.4l5.5,3.7l3.8,0.2l1.6-0.2l1.4,0.3l11.3,9.5
			l10.5,10l0.3,0.5v0.4l-19.1,3.9l-12.6,2.6l-12.4,2.5l-1.7-8.1v-0.3l1-3.4l-0.4-3.6l-0.3-1.1l-4.3-5.3l-4.8-2.2l-2.2-0.6l-0.7-0.1
			l4-5.6l7.1-5.9L255.1,255.9"/>
		<path id="Dauphin" inkscape:connector-curvature="0" class="st1" d="M257.3,221.6l11.2,5.8l-6.9,7.7l10.7,19.7l0.2-0.1l-7.8,7.6
			l-9.6-6.4l-4.8-7.1l-5.9-1.1l-0.9-0.4l-0.8-1.4l-0.1-0.3l0.4-15.4l0.5-3.5l0.9,1l0.7,0.2l0.3-0.1l2.7-1l6.7-4.4L257.3,221.6"/>
		<path id="Lebanon" inkscape:connector-curvature="0" class="st1" d="M268.5,227.4l6.4,3.3l19.5,10.1l-8,6.4l-7.2,2.8l-6.8,4.6
			l-0.2,0.1l-10.7-19.7L268.5,227.4"/>
		<path id="Lancaster" inkscape:connector-curvature="0" class="st1" d="M294.4,240.8l18.9,10.1l-3.6,3l-0.4,12.2l0.2,1.9l0.3,1.3
			l0.8,2l-0.6,4.1l-0.9,3.4l-0.8,2l-3.4,4.3l-5.7,1.2l-0.4,0.1v-0.4l-0.3-0.5l-10.5-10l-11.3-9.5l-1.4-0.3l-1.6,0.2l-3.8-0.2
			l-5.5-3.7l7.8-7.6l6.8-4.6l7.2-2.8L294.4,240.8"/>
		<path id="Berks" inkscape:connector-curvature="0" class="st1" d="M328,223.4l-6.2,17.5l-8.5,10l-18.9-10.1l-19.5-10.1l7.4-3.1
			l2.8-0.7l1.2-0.6l9.3-6.3l2.6-3.1l0.1-2.4l5.2-4L328,223.4"/>
		<path id="Schuylkill" inkscape:connector-curvature="0" class="st1" d="M280.9,193.9l12.6,0.2l16.6,10.4l-6.7,6l-5.2,4l-0.1,2.4
			l-2.6,3.1l-9.3,6.3l-1.2,0.6l-2.8,0.7l-7.4,3.1l-6.4-3.3l-11.2-5.8l16.6-12.6l3.7-2.8l0-6.4l1.5-2.8L280.9,193.9"/>
		<path id="Carbon" inkscape:connector-curvature="0" class="st1" d="M293.5,194.2l13.5-10.3l-0.7-1.5l-2.3-1.8l-0.3-1.6l0-0.7
			l0.2-0.3l3.1-3.7l0.2-0.2l1.4-0.5l1.2,0.7l1.8,0.6l9.1,7.6l-3.4,4.1l7.6,8.6l-7.3,3.7l-7.6,5.7L293.5,194.2"/>
		<path id="Luzerne" inkscape:connector-curvature="0" class="st1" d="M269.7,162.7l15.4-3.8l8.4-4.7l0.8-0.6l0.5,1.3l1.4,1.5
			l3.4,1.2l3.4,0.7l4.4,5.7l1.4,5.3l0.5,0.8l0.8,0.4l1.9,0.2l-2.1,3.5l-1.2-0.7l-1.4,0.5l-0.2,0.2l-3.1,3.7l-0.2,0.3l0,0.7l0.3,1.6
			l2.3,1.8l0.7,1.5l-13.5,10.3l-12.6-0.2l-6.9-12.9l-3.5-5l-0.4-1.8l-0.8-6.1L269.7,162.7"/>
		<path id="Lackawanna" inkscape:connector-curvature="0" class="st1" d="M297.2,136.2l14.6-3.1l7.6,28.4l-0.9,1.1l-2.3,1.7
			l-4.2,6.5l-1.9-0.2l-0.8-0.4l-0.5-0.8l-1.4-5.3l-4.4-5.7l-3.4-0.7l-3.4-1.2l-1.4-1.5l-0.5-1.3l2.3-6.6l-2-1l0.7-4.2l1.5-5.1
			L297.2,136.2"/>
		<path id="Bradford" inkscape:connector-curvature="0" class="st1" d="M244.2,119.1l23.2-4.7l7.4,25.7l-4.1,9.5l-34.4,3.2l-3.6,0.2
			l-9.3-29.9L244.2,119.1"/>
		<path id="Susquehanna" inkscape:connector-curvature="0" class="st1" d="M269.7,114l35-7.4l7.2,26.5l-14.6,3.1l-8.4,1.6l-13.9,3
			l-0.2-0.6l-7.4-25.7L269.7,114"/>
		<path id="Wayne" inkscape:connector-curvature="0" class="st1" d="M304.6,106.6l6.9-1.5l1.1,0.2l3.4,2.4l1,1l1.8,3.8l7.1,1.1
			l9.2,16.2l-4.2,12.6l-5.4,12.4l-1.3,7.2l-8.2,2.3l2.3-1.7l0.9-1.1l-7.6-28.4L304.6,106.6"/>
		<path id="Pike" inkscape:connector-curvature="0" class="st1" d="M335.3,129.8l1.6,3.5l2.5,2.4l1.8,1.6l6.2,3.1l1,0.5l4.6-0.2
			l2.5-0.3l4.6,4.4l-3.4,2.4L355,149l-1.4,2.8l-0.3,0.9l-0.7,3l-0.1,1l0.2,0.2l0.1,1.3l-0.3,2.3l-1.6,3.7l-2.3,3.2l-0.8,1.1l-2,1.2
			l-8.4-3.5l-0.1-8.1l-12.9,3.9l1.3-7.2l5.4-12.4L335.3,129.8"/>
		<path id="Monroe" inkscape:connector-curvature="0" class="st1" d="M324.4,161.9l12.9-3.9l0.1,8.1l8.4,3.5l2-1.2l0.8-1.1l0.3,0.4
			l-6.3,11.6L325,195.2l-7.6-8.6l3.4-4.1l-9.1-7.6l-1.8-0.6l2.1-3.5l4.2-6.5L324.4,161.9"/>
		<path id="Northampton" inkscape:connector-curvature="0" class="st1" d="M342.6,179.3l5.5,6.4l0.2,0.4l0,0.4l-2,5.9l-1.2,1.6
			l-0.9,0.1l-0.9-0.1l-0.5,0.1l-1,2.3l0.6,4.6l1.4,5.4l0.4,0.7l-6.6,7.1l-4.4-3.5l-6-3.6l-7.7-4.7l-0.8-0.9l-1-2.7l7.3-3.7
			L342.6,179.3"/>
		<path id="Lehigh" inkscape:connector-curvature="0" class="st1" d="M317.7,198.9l1,2.7l0.8,0.9l7.7,4.7l6,3.6l4.4,3.5l-6.6,10.7
			l-3.1-1.6l-24.6-12.8l6.7-6L317.7,198.9"/>
		<path id="Delaware" inkscape:connector-curvature="0" class="st1" d="M344.2,249.9l6.3,5.7l5.7,7.5l-10.7,7.4l-11.1-0.4
			L344.2,249.9"/>
		<path id="Montgomery" inkscape:connector-curvature="0" class="st1" d="M331.1,225l31.7,15.2l-6,6.5l-3.3-2.2l-3.3,5l3.1,2.3
			l-2.8,3.7l-6.3-5.7l-6.5-1.5l-5.7-4.4l-0.6-0.8l-0.2-0.2l-6-2.4l-3.3,0.4l6.2-17.5L331.1,225"/>
		<path id="Chester" inkscape:connector-curvature="0" class="st1" d="M321.8,240.9l3.3-0.4l6,2.4l0.2,0.2l0.6,0.8l5.7,4.4l6.5,1.5
			l-9.8,20.1l-9.3,11l-20.2,4.2l3.4-4.3l0.8-2l0.9-3.4l0.6-4.1l-0.8-2l-0.3-1.3l-0.2-1.9l0.4-12.2l3.6-3L321.8,240.9"/>
	</g>
	<g>
		<text transform="matrix(1 0 0 1 82.0719 39.0857)"><tspan x="0" y="0" class="st2 st3">Ski Areas of </tspan><tspan x="0" y="28.8" class="st2 st3">Pennsylvania</tspan></text>
		<text transform="matrix(1 0 0 1 79.9816 36.3617)"><tspan x="0" y="0" class="st4 st2 st3">Ski Areas of </tspan><tspan x="0" y="28.8" class="st4 st2 st3">Pennsylvania</tspan></text>
	</g>
</g>
</svg>
