<?xml version="1.0" encoding="utf-8"?>
<!-- Generator: Adobe Illustrator 29.5.0, SVG Export Plug-In . SVG Version: 9.03 Build 0)  -->
<svg version="1.0"
	 id="svg3015" xmlns:inkscape="http://www.inkscape.org/namespaces/inkscape" xmlns:rdf="http://www.w3.org/1999/02/22-rdf-syntax-ns#" xmlns:sodipodi="http://sodipodi.sourceforge.net/DTD/sodipodi-0.dtd" xmlns:cc="http://creativecommons.org/ns#" xmlns:dc="http://purl.org/dc/elements/1.1/" xmlns:svg="http://www.w3.org/2000/svg"
	 xmlns="http://www.w3.org/2000/svg" xmlns:xlink="http://www.w3.org/1999/xlink" x="0px" y="0px" viewBox="0 0 300 450"
	 style="enable-background:new 0 0 300 450;" xml:space="preserve">
<style type="text/css">
	.st0{fill:#A8CFEF;}
	.st1{fill:#D6E7E1;stroke:#000000;stroke-linejoin:bevel;}
	.st2{font-family:'Krungthep';}
	.st3{font-size:24px;}
	.st4{letter-spacing:30;}
	.st5{fill:#E21B4D;stroke:#000000;stroke-width:0.5;stroke-miterlimit:10;}
	.st6{font-family:'Arial-Black';}
</style>
<sodipodi:namedview  bordercolor="#666666" borderopacity="1.0" fit-margin-bottom="0" fit-margin-left="0" fit-margin-right="0" fit-margin-top="0" gridtolerance="10.0" guidetolerance="10.0" id="namedview3019" inkscape:current-layer="svg3015" inkscape:cx="-12.52632" inkscape:cy="16.37125" inkscape:guide-bbox="true" inkscape:pageopacity="0.0" inkscape:pageshadow="2" inkscape:window-height="746" inkscape:window-maximized="0" inkscape:window-width="1366" inkscape:window-x="-8" inkscape:window-y="-8" inkscape:zoom="10.421869" objecttolerance="10.0" pagecolor="#ffffff" showgrid="false" showguides="true">
	</sodipodi:namedview>
<g>
	<rect y="0.3" class="st0" width="300" height="450"/>
	<g>
		<path id="Monmouth" inkscape:connector-curvature="0" class="st1" d="M208.1,208.5l22.2-0.6l6.2-6.7l-0.1-0.3l0.4-0.4h1l1.8,0.7
			l3.5,3.5l3.8,9.3l1,3.3l0.1,0.3l1.1,6.6l0.3,2.9l0.2,6L250,253l-17.9,2.1l-4.5,0.1l-11.2-6.2l-19.2,3l-15.8,16.4l-7-7.3l-5.2-5.5
			l7-4l8.1-7.5v-0.3l-0.7-1L208.1,208.5"/>
		<path id="Ocean" inkscape:connector-curvature="0" class="st1" d="M181.3,268.3l15.8-16.4l19.2-3l11.2,6.2l4.5-0.1L250,253
			l-0.1,2.6l0.8,11.5l0.2,3.2l1.1,9.7l2.8,15.6l0.7,5.3l-0.1,0.6l-2.9,10.7l-7.7,21l-3.3,6.5l-4.1,3.3l-16.8-5.9l1.9-2.5l0.4-3.4
			l-7.3-24.5L184,271.1L181.3,268.3"/>
		<path id="Richmond_x2C__NY" inkscape:connector-curvature="0" class="st1" d="M217.1,195.6l-0.6,0.2l-1.3,1.4l-2,1.4l-0.6,0
			l-2,1.7l-1.3,0.6l-0.9,1.2l-3.2,1l-0.7-0.4l-0.3-0.7l0.3-0.8l0.7-1.1l-0.2-1.7l0.3-1.3l2.7-2.5l0.6-2.2l-0.4-2.7l0.4-1.3l-0.1-1.4
			l0.7-2.2l1.2-2l1.9-1.1l3.5-1.4l4.2-1.7l1.5-0.2l1.1,0.8l1,2.3l2.8,2.5l-0.4,1.5l-5,7.7l-3.2,2.5L217.1,195.6"/>
		<path id="Essex" inkscape:connector-curvature="0" class="st1" d="M185.2,148.7l22,7.3l-1,5.1l6.1,15.1l-33.9-3.2L185.2,148.7"/>
		<path id="Union" inkscape:connector-curvature="0" class="st1" d="M178.5,172.9l33.9,3.2l-2,4.9l-2.7,0.1l-0.6,0.2l-0.3,0.4
			l-1.3,2.1l0.9,5.3l-5.7,0.1l-1.5-0.1l-6.2,0.1l-17.3,4.8l-3.5,0.4l-2.8-10.5L178.5,172.9"/>
		<path id="Hudson" inkscape:connector-curvature="0" class="st1" d="M227,155.5l-1.3,13.2l-1.8,4l-13.6,8.3l2-4.9l-6.1-15.1
			L227,155.5"/>
		<path id="Bergen" inkscape:connector-curvature="0" class="st1" d="M183.2,114.8l47.7,11.1l0.2,11.5l-0.6,5.3l-3.6,12.8l-20.8,5.6
			l1-5.1l0.6-0.5l0.8-5.2l-0.2-0.7l-5.5-7.5l-3.2-3.4l-5.9-3.2l-13.6-4L183.2,114.8"/>
		<path id="Middlesex" inkscape:connector-curvature="0" class="st1" d="M206.4,189l0.1,0.8l0.3,1.7l-0.1,2.3l-0.3,0.6h-0.9
			l-0.9,0.1l-1.9,1.7l-0.1,1.1l1.6,2.8l-1.9,3.4l-0.1,0.2l-0.2,1.6l1.4,2.2l1.1,0.8l3.6,0.3h0.1l-24.6,34.1l-23-13.6l0.8-0.2
			l1.6-1.5l12.4-16.9l-0.3-3.5l-2.6-0.7l-3.4-2.2l-3.5-2.9l-0.2-1l0.9-2l0.8-0.8l5.2-2.9l3.5-0.4l17.3-4.8l6.2-0.1l1.5,0.1
			L206.4,189"/>
		<path id="Somerset" inkscape:connector-curvature="0" class="st1" d="M169.4,184l2.8,10.5l-5.2,2.9l-0.8,0.8l-0.9,2l0.2,1l3.5,2.9
			l3.4,2.2l2.6,0.7l0.3,3.5l-12.4,16.9l-1.6,1.5l-0.8,0.2l-0.8-1.2l-4-0.3l-8.8,3.9l-5.4-6.1l-0.8-0.9l-5.9-9.5l2.3-7.5l0.9-1.2
			l1.5-9.1l-5.1-11.1l-1-1.5l-0.9-0.5l21-9.3l0.4,0.2l1,1.2l0.3,0.9l7.1,11.9L169.4,184"/>
		<path id="Morris" inkscape:connector-curvature="0" class="st1" d="M147,128.2l12.8,6.4l8.7,0.3l8.7,0l8.1,13.8l-6.8,24.2
			l-9.1,11.1l-7.3,5L155,177l-0.3-0.9l-1-1.2l-0.4-0.2l-21,9.3l-24.5-5.5l11.2-20L147,128.2"/>
		<path id="Passaic" inkscape:connector-curvature="0" class="st1" d="M180.1,114l3.1,0.7l-3,16.7l13.6,4l5.9,3.2l3.2,3.4l5.5,7.5
			l0.2,0.7l-0.8,5.2l-0.6,0.5l-22-7.3l-8.1-13.8l-8.7,0l-8.7-0.3l-12.8-6.4l13.3-19.4L180.1,114"/>
		<path id="Sussex" inkscape:connector-curvature="0" class="st1" d="M160.3,108.8L147,128.2l-28,30.3l-34.2-21l-0.8-0.7l5.4-5.9
			l3.7-6.8l0.8-4.2l-0.3-2.3l-0.6-0.4l0.3-1.9l1.6-5.4l0.7-1.6L99,103l3.8-3.2l8-4.5L160.3,108.8"/>
		<path id="Warren" inkscape:connector-curvature="0" class="st1" d="M84.9,137.5l34.2,21l-11.2,20l-1.3,2.7l-5.9,8.8l-1.1,1.1
			l-7.7,6l-13.3,11.5l-3,3.9l-1.5-2.2l-0.9-1.3L70,199l-1.4-8.5l2.3-4.2l1.1-0.2l2,0.2l2-0.2l2.8-3l4.5-10.8l0.1-0.8l-0.4-0.8
			l-12.8-11.7L84.9,137.5"/>
		<path id="Hunterdon" inkscape:connector-curvature="0" class="st1" d="M107.9,178.5l24.5,5.5l0.9,0.5l1,1.5l5.1,11.1l-1.5,9.1
			l-0.9,1.2l-2.3,7.5l5.9,9.5l0.8,0.9l-7.2,3.5l-4,9.8l-9.5,2.7h-1.3l-0.9-0.4l-13.1-6.2l-10.2-16l-19.4-6.1l3-3.9L92,197.1l7.7-6
			l1.1-1.1l5.9-8.8L107.9,178.5"/>
		<path id="Mercer" inkscape:connector-curvature="0" class="st1" d="M141.4,225.3l5.4,6.1l8.8-3.9l4,0.3l0.8,1.2l23,13.6l0.7,1v0.3
			l-8.1,7.5l-7,4l5.2,5.5l-18.6,2l-36.4-21.8h1.3l9.5-2.7l4-9.8L141.4,225.3"/>
		<path id="Camden" inkscape:connector-curvature="0" class="st1" d="M107.2,307.2l10.3-14.9l53.6,28.5L156.8,341l-17.5-10.7
			l-19.6-16.7l-7.4-4.2L107.2,307.2"/>
		<path id="Gloucester" inkscape:connector-curvature="0" class="st1" d="M101.8,313.2l5.4-6l5.2,2.1l7.4,4.2l19.6,16.7l17.5,10.7
			l-10.8,15.5l-12.5-5.7l-60.1-19.4l3.3-4.6L101.8,313.2"/>
		<path id="Salem" inkscape:connector-curvature="0" class="st1" d="M73.5,331.4l60.1,19.4l1.7,12.3v2.9l-0.2,0.7l-25-10.4
			l-13.4,17.2l-2.1,11.2l-29-27.6l-1.4-3.2l4.5-8.9L73.5,331.4"/>
		<path id="Cumberland" inkscape:connector-curvature="0" class="st1" d="M170.5,380l-1.4,21.4l-27.5-0.1l-9.5-1.7l-18.2-4.9
			l-16.4-7.1l-0.8-0.7l-2.3-2.2l2.1-11.2l13.4-17.2l25,10.4l0.2-0.7v-2.9l-1.7-12.3l12.5,5.7L170.5,380"/>
		<path id="Cape_May" inkscape:connector-curvature="0" class="st1" d="M170.5,380l44-4.3l-5.8,6.9L207,385l-1.9,3.8l-3.1,6.5
			l-3.4,9.3v0.4l0.1,0.1l0.2,0.2l-5.1,14.2l-3.7,7l-4.7,6.3l-7,3l-1.8,0.4l-4.2,0.3l-0.6-0.3l-0.9-0.8l-0.2-8.8l0.3-2.2l0.7-2.9
			l2.7-8.1l0.3-1.7l0.1-2.1l-0.3-4.4l-0.7-2.1l-3.1-1.8l-1.4-0.1L170.5,380"/>
		<path id="Atlantic" inkscape:connector-curvature="0" class="st1" d="M237.4,342.9l-22.9,32.7l-44,4.3l-24.4-23.5l10.8-15.5
			l14.1-20.1l1.9,0.8l7.7,3.1l10,7.7l12.5,4.5l3.3,0.8l6,0.9l8.1-1.6L237.4,342.9"/>
		<path id="Burlington" inkscape:connector-curvature="0" class="st1" d="M155.7,263l18.6-2l7,7.3l2.6,2.8l31.7,35.5l7.3,24.5
			l-0.4,3.4l-1.9,2.5l-8.1,1.6l-6-0.9l-3.3-0.8l-12.5-4.5l-10-7.7l-7.7-3.1l-1.9-0.8l-53.6-28.5l8.7-9.9L155.7,263"/>
	</g>
	<g>
		<text transform="matrix(1 0 0 1 45.7683 45.2066)"><tspan x="0" y="0" class="st2 st3">Ski Areas of </tspan><tspan x="0" y="28.8" class="st2 st3 st4">	</tspan><tspan x="36" y="28.8" class="st2 st3">New Jersey </tspan></text>
		<text transform="matrix(1 0 0 1 43.7522 42.5649)"><tspan x="0" y="0" class="st5 st2 st3">Ski Areas of </tspan><tspan x="0" y="28.8" class="st5 st2 st3 st4">	</tspan><tspan x="36" y="28.8" class="st5 st2 st3">New Jersey</tspan><tspan x="187.8" y="28.8" class="st5 st6 st3"> </tspan></text>
	</g>
</g>
</svg>
